<?xml version="1.0" encoding="utf-8" standalone="no"?>
<!DOCTYPE svg PUBLIC "-//W3C//DTD SVG 1.1//EN"
  "http://www.w3.org/Graphics/SVG/1.1/DTD/svg11.dtd">
<svg xmlns:xlink="http://www.w3.org/1999/xlink" width="631.4325pt" height="650.968437pt" viewBox="0 0 631.4325 650.968437" xmlns="http://www.w3.org/2000/svg" version="1.1">
 <metadata>
  <rdf:RDF xmlns:dc="http://purl.org/dc/elements/1.1/" xmlns:cc="http://creativecommons.org/ns#" xmlns:rdf="http://www.w3.org/1999/02/22-rdf-syntax-ns#">
   <cc:Work>
    <dc:type rdf:resource="http://purl.org/dc/dcmitype/StillImage"/>
    <dc:date>2025-07-15T19:53:22.047651</dc:date>
    <dc:format>image/svg+xml</dc:format>
    <dc:creator>
     <cc:Agent>
      <dc:title>Matplotlib v3.8.4, https://matplotlib.org/</dc:title>
     </cc:Agent>
    </dc:creator>
   </cc:Work>
  </rdf:RDF>
 </metadata>
 <defs>
  <style type="text/css">*{stroke-linejoin: round; stroke-linecap: butt}</style>
 </defs>
 <g id="figure_1">
  <g id="patch_1">
   <path d="M 0 650.968437 
L 631.4325 650.968437 
L 631.4325 0 
L 0 0 
z
" style="fill: #ffffff"/>
  </g>
  <g id="axes_1">
   <g id="patch_2">
    <path d="M 50.2325 193.68 
L 305.3625 193.68 
L 305.3625 60.2 
L 50.2325 60.2 
z
" style="fill: #ffffff"/>
   </g>
   <g id="patch_3">
    <path d="M 61.829318 193.68 
L 72.873907 193.68 
L 72.873907 154.427099 
L 61.829318 154.427099 
z
" clip-path="url(#pec6825f47c)" style="fill: #1f77b4"/>
   </g>
   <g id="patch_4">
    <path d="M 150.186028 193.68 
L 161.230617 193.68 
L 161.230617 151.893804 
L 150.186028 151.893804 
z
" clip-path="url(#pec6825f47c)" style="fill: #1f77b4"/>
   </g>
   <g id="patch_5">
    <path d="M 238.542738 193.68 
L 249.587327 193.68 
L 249.587327 151.718846 
L 238.542738 151.718846 
z
" clip-path="url(#pec6825f47c)" style="fill: #1f77b4"/>
   </g>
   <g id="patch_6">
    <path d="M 72.873907 193.68 
L 83.918496 193.68 
L 83.918496 116.855126 
L 72.873907 116.855126 
z
" clip-path="url(#pec6825f47c)" style="fill: #ff7f0e"/>
   </g>
   <g id="patch_7">
    <path d="M 161.230617 193.68 
L 172.275206 193.68 
L 172.275206 127.98049 
L 161.230617 127.98049 
z
" clip-path="url(#pec6825f47c)" style="fill: #ff7f0e"/>
   </g>
   <g id="patch_8">
    <path d="M 249.587327 193.68 
L 260.631916 193.68 
L 260.631916 129.712819 
L 249.587327 129.712819 
z
" clip-path="url(#pec6825f47c)" style="fill: #ff7f0e"/>
   </g>
   <g id="patch_9">
    <path d="M 83.918496 193.68 
L 94.963084 193.68 
L 94.963084 159.295805 
L 83.918496 159.295805 
z
" clip-path="url(#pec6825f47c)" style="fill: #2ca02c"/>
   </g>
   <g id="patch_10">
    <path d="M 172.275206 193.68 
L 183.319794 193.68 
L 183.319794 155.003392 
L 172.275206 155.003392 
z
" clip-path="url(#pec6825f47c)" style="fill: #2ca02c"/>
   </g>
   <g id="patch_11">
    <path d="M 260.631916 193.68 
L 271.676504 193.68 
L 271.676504 150.700586 
L 260.631916 150.700586 
z
" clip-path="url(#pec6825f47c)" style="fill: #2ca02c"/>
   </g>
   <g id="patch_12">
    <path d="M 94.963084 193.68 
L 106.007673 193.68 
L 106.007673 66.55619 
L 94.963084 66.55619 
z
" clip-path="url(#pec6825f47c)" style="fill: #d62728"/>
   </g>
   <g id="patch_13">
    <path d="M 183.319794 193.68 
L 194.364383 193.68 
L 194.364383 148.76617 
L 183.319794 148.76617 
z
" clip-path="url(#pec6825f47c)" style="fill: #d62728"/>
   </g>
   <g id="patch_14">
    <path d="M 271.676504 193.68 
L 282.721093 193.68 
L 282.721093 143.900578 
L 271.676504 143.900578 
z
" clip-path="url(#pec6825f47c)" style="fill: #d62728"/>
   </g>
   <g id="patch_15">
    <path d="M 106.007673 193.68 
L 117.052262 193.68 
L 117.052262 145.633382 
L 106.007673 145.633382 
z
" clip-path="url(#pec6825f47c)" style="fill: #9467bd"/>
   </g>
   <g id="patch_16">
    <path d="M 194.364383 193.68 
L 205.408972 193.68 
L 205.408972 151.400435 
L 194.364383 151.400435 
z
" clip-path="url(#pec6825f47c)" style="fill: #9467bd"/>
   </g>
   <g id="patch_17">
    <path d="M 282.721093 193.68 
L 293.765682 193.68 
L 293.765682 144.26191 
L 282.721093 144.26191 
z
" clip-path="url(#pec6825f47c)" style="fill: #9467bd"/>
   </g>
   <g id="matplotlib.axis_1">
    <g id="xtick_1">
     <g id="line2d_1">
      <defs>
       <path id="m113a2a2262" d="M 0 0 
L 0 3.5 
" style="stroke: #000000; stroke-width: 0.8"/>
      </defs>
      <g>
       <use xlink:href="#m113a2a2262" x="94.963084" y="193.68" style="stroke: #000000; stroke-width: 0.8"/>
      </g>
     </g>
     <g id="text_1">
      <!-- 0.1 -->
      <g transform="translate(86.213084 210.40125) scale(0.14 -0.14)">
       <defs>
        <path id="TimesNewRomanPSMT-30" d="M 231 2094 
Q 231 2819 450 3342 
Q 669 3866 1031 4122 
Q 1313 4325 1613 4325 
Q 2100 4325 2488 3828 
Q 2972 3213 2972 2159 
Q 2972 1422 2759 906 
Q 2547 391 2217 158 
Q 1888 -75 1581 -75 
Q 975 -75 572 641 
Q 231 1244 231 2094 
z
M 844 2016 
Q 844 1141 1059 588 
Q 1238 122 1591 122 
Q 1759 122 1940 273 
Q 2122 425 2216 781 
Q 2359 1319 2359 2297 
Q 2359 3022 2209 3506 
Q 2097 3866 1919 4016 
Q 1791 4119 1609 4119 
Q 1397 4119 1231 3928 
Q 1006 3669 925 3112 
Q 844 2556 844 2016 
z
" transform="scale(0.015625)"/>
        <path id="TimesNewRomanPSMT-2e" d="M 800 606 
Q 947 606 1047 504 
Q 1147 403 1147 259 
Q 1147 116 1045 14 
Q 944 -88 800 -88 
Q 656 -88 554 14 
Q 453 116 453 259 
Q 453 406 554 506 
Q 656 606 800 606 
z
" transform="scale(0.015625)"/>
        <path id="TimesNewRomanPSMT-31" d="M 750 3822 
L 1781 4325 
L 1884 4325 
L 1884 747 
Q 1884 391 1914 303 
Q 1944 216 2037 169 
Q 2131 122 2419 116 
L 2419 0 
L 825 0 
L 825 116 
Q 1125 122 1212 167 
Q 1300 213 1334 289 
Q 1369 366 1369 747 
L 1369 3034 
Q 1369 3497 1338 3628 
Q 1316 3728 1258 3775 
Q 1200 3822 1119 3822 
Q 1003 3822 797 3725 
L 750 3822 
z
" transform="scale(0.015625)"/>
       </defs>
       <use xlink:href="#TimesNewRomanPSMT-30"/>
       <use xlink:href="#TimesNewRomanPSMT-2e" x="50"/>
       <use xlink:href="#TimesNewRomanPSMT-31" x="75"/>
      </g>
     </g>
    </g>
    <g id="xtick_2">
     <g id="line2d_2">
      <g>
       <use xlink:href="#m113a2a2262" x="183.319794" y="193.68" style="stroke: #000000; stroke-width: 0.8"/>
      </g>
     </g>
     <g id="text_2">
      <!-- 0.5 -->
      <g transform="translate(174.569794 210.40125) scale(0.14 -0.14)">
       <defs>
        <path id="TimesNewRomanPSMT-35" d="M 2778 4238 
L 2534 3706 
L 1259 3706 
L 981 3138 
Q 1809 3016 2294 2522 
Q 2709 2097 2709 1522 
Q 2709 1188 2573 903 
Q 2438 619 2231 419 
Q 2025 219 1772 97 
Q 1413 -75 1034 -75 
Q 653 -75 479 54 
Q 306 184 306 341 
Q 306 428 378 495 
Q 450 563 559 563 
Q 641 563 702 538 
Q 763 513 909 409 
Q 1144 247 1384 247 
Q 1750 247 2026 523 
Q 2303 800 2303 1197 
Q 2303 1581 2056 1914 
Q 1809 2247 1375 2428 
Q 1034 2569 447 2591 
L 1259 4238 
L 2778 4238 
z
" transform="scale(0.015625)"/>
       </defs>
       <use xlink:href="#TimesNewRomanPSMT-30"/>
       <use xlink:href="#TimesNewRomanPSMT-2e" x="50"/>
       <use xlink:href="#TimesNewRomanPSMT-35" x="75"/>
      </g>
     </g>
    </g>
    <g id="xtick_3">
     <g id="line2d_3">
      <g>
       <use xlink:href="#m113a2a2262" x="271.676504" y="193.68" style="stroke: #000000; stroke-width: 0.8"/>
      </g>
     </g>
     <g id="text_3">
      <!-- 1.0 -->
      <g transform="translate(262.926504 210.40125) scale(0.14 -0.14)">
       <use xlink:href="#TimesNewRomanPSMT-31"/>
       <use xlink:href="#TimesNewRomanPSMT-2e" x="50"/>
       <use xlink:href="#TimesNewRomanPSMT-30" x="75"/>
      </g>
     </g>
    </g>
    <g id="text_4">
     <!-- dirichlet alpha -->
     <g transform="translate(131.81625 228.505938) scale(0.16 -0.16)">
      <defs>
       <path id="TimesNewRomanPSMT-64" d="M 2222 322 
Q 2013 103 1813 7 
Q 1613 -88 1381 -88 
Q 913 -88 563 304 
Q 213 697 213 1313 
Q 213 1928 600 2439 
Q 988 2950 1597 2950 
Q 1975 2950 2222 2709 
L 2222 3238 
Q 2222 3728 2198 3840 
Q 2175 3953 2125 3993 
Q 2075 4034 2000 4034 
Q 1919 4034 1784 3984 
L 1744 4094 
L 2597 4444 
L 2738 4444 
L 2738 1134 
Q 2738 631 2761 520 
Q 2784 409 2836 365 
Q 2888 322 2956 322 
Q 3041 322 3181 375 
L 3216 266 
L 2366 -88 
L 2222 -88 
L 2222 322 
z
M 2222 541 
L 2222 2016 
Q 2203 2228 2109 2403 
Q 2016 2578 1861 2667 
Q 1706 2756 1559 2756 
Q 1284 2756 1069 2509 
Q 784 2184 784 1559 
Q 784 928 1059 592 
Q 1334 256 1672 256 
Q 1956 256 2222 541 
z
" transform="scale(0.015625)"/>
       <path id="TimesNewRomanPSMT-69" d="M 928 4444 
Q 1059 4444 1151 4351 
Q 1244 4259 1244 4128 
Q 1244 3997 1151 3903 
Q 1059 3809 928 3809 
Q 797 3809 703 3903 
Q 609 3997 609 4128 
Q 609 4259 701 4351 
Q 794 4444 928 4444 
z
M 1188 2947 
L 1188 647 
Q 1188 378 1227 289 
Q 1266 200 1342 156 
Q 1419 113 1622 113 
L 1622 0 
L 231 0 
L 231 113 
Q 441 113 512 153 
Q 584 194 626 287 
Q 669 381 669 647 
L 669 1750 
Q 669 2216 641 2353 
Q 619 2453 572 2492 
Q 525 2531 444 2531 
Q 356 2531 231 2484 
L 188 2597 
L 1050 2947 
L 1188 2947 
z
" transform="scale(0.015625)"/>
       <path id="TimesNewRomanPSMT-72" d="M 1038 2947 
L 1038 2303 
Q 1397 2947 1775 2947 
Q 1947 2947 2059 2842 
Q 2172 2738 2172 2600 
Q 2172 2478 2090 2393 
Q 2009 2309 1897 2309 
Q 1788 2309 1652 2417 
Q 1516 2525 1450 2525 
Q 1394 2525 1328 2463 
Q 1188 2334 1038 2041 
L 1038 669 
Q 1038 431 1097 309 
Q 1138 225 1241 169 
Q 1344 113 1538 113 
L 1538 0 
L 72 0 
L 72 113 
Q 291 113 397 181 
Q 475 231 506 341 
Q 522 394 522 644 
L 522 1753 
Q 522 2253 501 2348 
Q 481 2444 426 2487 
Q 372 2531 291 2531 
Q 194 2531 72 2484 
L 41 2597 
L 906 2947 
L 1038 2947 
z
" transform="scale(0.015625)"/>
       <path id="TimesNewRomanPSMT-63" d="M 2631 1088 
Q 2516 522 2178 217 
Q 1841 -88 1431 -88 
Q 944 -88 581 321 
Q 219 731 219 1428 
Q 219 2103 620 2525 
Q 1022 2947 1584 2947 
Q 2006 2947 2278 2723 
Q 2550 2500 2550 2259 
Q 2550 2141 2473 2067 
Q 2397 1994 2259 1994 
Q 2075 1994 1981 2113 
Q 1928 2178 1911 2362 
Q 1894 2547 1784 2644 
Q 1675 2738 1481 2738 
Q 1169 2738 978 2506 
Q 725 2200 725 1697 
Q 725 1184 976 792 
Q 1228 400 1656 400 
Q 1963 400 2206 609 
Q 2378 753 2541 1131 
L 2631 1088 
z
" transform="scale(0.015625)"/>
       <path id="TimesNewRomanPSMT-68" d="M 1041 4444 
L 1041 2350 
Q 1388 2731 1591 2839 
Q 1794 2947 1997 2947 
Q 2241 2947 2416 2812 
Q 2591 2678 2675 2391 
Q 2734 2191 2734 1659 
L 2734 647 
Q 2734 375 2778 275 
Q 2809 200 2884 156 
Q 2959 113 3159 113 
L 3159 0 
L 1753 0 
L 1753 113 
L 1819 113 
Q 2019 113 2097 173 
Q 2175 234 2206 353 
Q 2216 403 2216 647 
L 2216 1659 
Q 2216 2128 2167 2275 
Q 2119 2422 2012 2495 
Q 1906 2569 1756 2569 
Q 1603 2569 1437 2487 
Q 1272 2406 1041 2159 
L 1041 647 
Q 1041 353 1073 281 
Q 1106 209 1195 161 
Q 1284 113 1503 113 
L 1503 0 
L 84 0 
L 84 113 
Q 275 113 384 172 
Q 447 203 484 290 
Q 522 378 522 647 
L 522 3238 
Q 522 3728 498 3840 
Q 475 3953 426 3993 
Q 378 4034 297 4034 
Q 231 4034 84 3984 
L 41 4094 
L 897 4444 
L 1041 4444 
z
" transform="scale(0.015625)"/>
       <path id="TimesNewRomanPSMT-6c" d="M 1184 4444 
L 1184 647 
Q 1184 378 1223 290 
Q 1263 203 1344 158 
Q 1425 113 1647 113 
L 1647 0 
L 244 0 
L 244 113 
Q 441 113 512 153 
Q 584 194 625 287 
Q 666 381 666 647 
L 666 3247 
Q 666 3731 644 3842 
Q 622 3953 573 3993 
Q 525 4034 450 4034 
Q 369 4034 244 3984 
L 191 4094 
L 1044 4444 
L 1184 4444 
z
" transform="scale(0.015625)"/>
       <path id="TimesNewRomanPSMT-65" d="M 681 1784 
Q 678 1147 991 784 
Q 1303 422 1725 422 
Q 2006 422 2214 576 
Q 2422 731 2563 1106 
L 2659 1044 
Q 2594 616 2278 264 
Q 1963 -88 1488 -88 
Q 972 -88 605 314 
Q 238 716 238 1394 
Q 238 2128 614 2539 
Q 991 2950 1559 2950 
Q 2041 2950 2350 2633 
Q 2659 2316 2659 1784 
L 681 1784 
z
M 681 1966 
L 2006 1966 
Q 1991 2241 1941 2353 
Q 1863 2528 1708 2628 
Q 1553 2728 1384 2728 
Q 1125 2728 920 2526 
Q 716 2325 681 1966 
z
" transform="scale(0.015625)"/>
       <path id="TimesNewRomanPSMT-74" d="M 1031 3803 
L 1031 2863 
L 1700 2863 
L 1700 2644 
L 1031 2644 
L 1031 788 
Q 1031 509 1111 412 
Q 1191 316 1316 316 
Q 1419 316 1516 380 
Q 1613 444 1666 569 
L 1788 569 
Q 1678 263 1478 108 
Q 1278 -47 1066 -47 
Q 922 -47 784 33 
Q 647 113 581 261 
Q 516 409 516 719 
L 516 2644 
L 63 2644 
L 63 2747 
Q 234 2816 414 2980 
Q 594 3144 734 3369 
Q 806 3488 934 3803 
L 1031 3803 
z
" transform="scale(0.015625)"/>
       <path id="TimesNewRomanPSMT-20" transform="scale(0.015625)"/>
       <path id="TimesNewRomanPSMT-61" d="M 1822 413 
Q 1381 72 1269 19 
Q 1100 -59 909 -59 
Q 613 -59 420 144 
Q 228 347 228 678 
Q 228 888 322 1041 
Q 450 1253 767 1440 
Q 1084 1628 1822 1897 
L 1822 2009 
Q 1822 2438 1686 2597 
Q 1550 2756 1291 2756 
Q 1094 2756 978 2650 
Q 859 2544 859 2406 
L 866 2225 
Q 866 2081 792 2003 
Q 719 1925 600 1925 
Q 484 1925 411 2006 
Q 338 2088 338 2228 
Q 338 2497 613 2722 
Q 888 2947 1384 2947 
Q 1766 2947 2009 2819 
Q 2194 2722 2281 2516 
Q 2338 2381 2338 1966 
L 2338 994 
Q 2338 584 2353 492 
Q 2369 400 2405 369 
Q 2441 338 2488 338 
Q 2538 338 2575 359 
Q 2641 400 2828 588 
L 2828 413 
Q 2478 -56 2159 -56 
Q 2006 -56 1915 50 
Q 1825 156 1822 413 
z
M 1822 616 
L 1822 1706 
Q 1350 1519 1213 1441 
Q 966 1303 859 1153 
Q 753 1003 753 825 
Q 753 600 887 451 
Q 1022 303 1197 303 
Q 1434 303 1822 616 
z
" transform="scale(0.015625)"/>
       <path id="TimesNewRomanPSMT-70" d="M -6 2578 
L 875 2934 
L 994 2934 
L 994 2266 
Q 1216 2644 1439 2795 
Q 1663 2947 1909 2947 
Q 2341 2947 2628 2609 
Q 2981 2197 2981 1534 
Q 2981 794 2556 309 
Q 2206 -88 1675 -88 
Q 1444 -88 1275 -22 
Q 1150 25 994 166 
L 994 -706 
Q 994 -1000 1030 -1079 
Q 1066 -1159 1155 -1206 
Q 1244 -1253 1478 -1253 
L 1478 -1369 
L -22 -1369 
L -22 -1253 
L 56 -1253 
Q 228 -1256 350 -1188 
Q 409 -1153 442 -1076 
Q 475 -1000 475 -688 
L 475 2019 
Q 475 2297 450 2372 
Q 425 2447 370 2484 
Q 316 2522 222 2522 
Q 147 2522 31 2478 
L -6 2578 
z
M 994 2081 
L 994 1013 
Q 994 666 1022 556 
Q 1066 375 1236 237 
Q 1406 100 1666 100 
Q 1978 100 2172 344 
Q 2425 663 2425 1241 
Q 2425 1897 2138 2250 
Q 1938 2494 1663 2494 
Q 1513 2494 1366 2419 
Q 1253 2363 994 2081 
z
" transform="scale(0.015625)"/>
      </defs>
      <use xlink:href="#TimesNewRomanPSMT-64"/>
      <use xlink:href="#TimesNewRomanPSMT-69" x="50"/>
      <use xlink:href="#TimesNewRomanPSMT-72" x="77.783203"/>
      <use xlink:href="#TimesNewRomanPSMT-69" x="111.083984"/>
      <use xlink:href="#TimesNewRomanPSMT-63" x="138.867188"/>
      <use xlink:href="#TimesNewRomanPSMT-68" x="183.251953"/>
      <use xlink:href="#TimesNewRomanPSMT-6c" x="233.251953"/>
      <use xlink:href="#TimesNewRomanPSMT-65" x="261.035156"/>
      <use xlink:href="#TimesNewRomanPSMT-74" x="305.419922"/>
      <use xlink:href="#TimesNewRomanPSMT-20" x="333.203125"/>
      <use xlink:href="#TimesNewRomanPSMT-61" x="358.203125"/>
      <use xlink:href="#TimesNewRomanPSMT-6c" x="402.587891"/>
      <use xlink:href="#TimesNewRomanPSMT-70" x="430.371094"/>
      <use xlink:href="#TimesNewRomanPSMT-68" x="480.371094"/>
      <use xlink:href="#TimesNewRomanPSMT-61" x="530.371094"/>
     </g>
    </g>
   </g>
   <g id="matplotlib.axis_2">
    <g id="ytick_1">
     <g id="line2d_4">
      <path d="M 50.2325 193.68 
L 305.3625 193.68 
" clip-path="url(#pec6825f47c)" style="fill: none; stroke-dasharray: 2.96,1.28; stroke-dashoffset: 0; stroke: #b0b0b0; stroke-opacity: 0.6; stroke-width: 0.8"/>
     </g>
     <g id="line2d_5">
      <defs>
       <path id="m28e2669895" d="M 0 0 
L -3.5 0 
" style="stroke: #000000; stroke-width: 0.8"/>
      </defs>
      <g>
       <use xlink:href="#m28e2669895" x="50.2325" y="193.68" style="stroke: #000000; stroke-width: 0.8"/>
      </g>
     </g>
     <g id="text_5">
      <!-- 0 -->
      <g transform="translate(36.2325 198.540625) scale(0.14 -0.14)">
       <use xlink:href="#TimesNewRomanPSMT-30"/>
      </g>
     </g>
    </g>
    <g id="ytick_2">
     <g id="line2d_6">
      <path d="M 50.2325 150.668806 
L 305.3625 150.668806 
" clip-path="url(#pec6825f47c)" style="fill: none; stroke-dasharray: 2.96,1.28; stroke-dashoffset: 0; stroke: #b0b0b0; stroke-opacity: 0.6; stroke-width: 0.8"/>
     </g>
     <g id="line2d_7">
      <g>
       <use xlink:href="#m28e2669895" x="50.2325" y="150.668806" style="stroke: #000000; stroke-width: 0.8"/>
      </g>
     </g>
     <g id="text_6">
      <!-- 20 -->
      <g transform="translate(29.2325 155.529431) scale(0.14 -0.14)">
       <defs>
        <path id="TimesNewRomanPSMT-32" d="M 2934 816 
L 2638 0 
L 138 0 
L 138 116 
Q 1241 1122 1691 1759 
Q 2141 2397 2141 2925 
Q 2141 3328 1894 3587 
Q 1647 3847 1303 3847 
Q 991 3847 742 3664 
Q 494 3481 375 3128 
L 259 3128 
Q 338 3706 661 4015 
Q 984 4325 1469 4325 
Q 1984 4325 2329 3994 
Q 2675 3663 2675 3213 
Q 2675 2891 2525 2569 
Q 2294 2063 1775 1497 
Q 997 647 803 472 
L 1909 472 
Q 2247 472 2383 497 
Q 2519 522 2628 598 
Q 2738 675 2819 816 
L 2934 816 
z
" transform="scale(0.015625)"/>
       </defs>
       <use xlink:href="#TimesNewRomanPSMT-32"/>
       <use xlink:href="#TimesNewRomanPSMT-30" x="50"/>
      </g>
     </g>
    </g>
    <g id="ytick_3">
     <g id="line2d_8">
      <path d="M 50.2325 107.657611 
L 305.3625 107.657611 
" clip-path="url(#pec6825f47c)" style="fill: none; stroke-dasharray: 2.96,1.28; stroke-dashoffset: 0; stroke: #b0b0b0; stroke-opacity: 0.6; stroke-width: 0.8"/>
     </g>
     <g id="line2d_9">
      <g>
       <use xlink:href="#m28e2669895" x="50.2325" y="107.657611" style="stroke: #000000; stroke-width: 0.8"/>
      </g>
     </g>
     <g id="text_7">
      <!-- 40 -->
      <g transform="translate(29.2325 112.518236) scale(0.14 -0.14)">
       <defs>
        <path id="TimesNewRomanPSMT-34" d="M 2978 1563 
L 2978 1119 
L 2409 1119 
L 2409 0 
L 1894 0 
L 1894 1119 
L 100 1119 
L 100 1519 
L 2066 4325 
L 2409 4325 
L 2409 1563 
L 2978 1563 
z
M 1894 1563 
L 1894 3666 
L 406 1563 
L 1894 1563 
z
" transform="scale(0.015625)"/>
       </defs>
       <use xlink:href="#TimesNewRomanPSMT-34"/>
       <use xlink:href="#TimesNewRomanPSMT-30" x="50"/>
      </g>
     </g>
    </g>
    <g id="ytick_4">
     <g id="line2d_10">
      <path d="M 50.2325 64.646417 
L 305.3625 64.646417 
" clip-path="url(#pec6825f47c)" style="fill: none; stroke-dasharray: 2.96,1.28; stroke-dashoffset: 0; stroke: #b0b0b0; stroke-opacity: 0.6; stroke-width: 0.8"/>
     </g>
     <g id="line2d_11">
      <g>
       <use xlink:href="#m28e2669895" x="50.2325" y="64.646417" style="stroke: #000000; stroke-width: 0.8"/>
      </g>
     </g>
     <g id="text_8">
      <!-- 60 -->
      <g transform="translate(29.2325 69.507042) scale(0.14 -0.14)">
       <defs>
        <path id="TimesNewRomanPSMT-36" d="M 2869 4325 
L 2869 4209 
Q 2456 4169 2195 4045 
Q 1934 3922 1679 3669 
Q 1425 3416 1258 3105 
Q 1091 2794 978 2366 
Q 1428 2675 1881 2675 
Q 2316 2675 2634 2325 
Q 2953 1975 2953 1425 
Q 2953 894 2631 456 
Q 2244 -75 1606 -75 
Q 1172 -75 869 213 
Q 275 772 275 1663 
Q 275 2231 503 2743 
Q 731 3256 1154 3653 
Q 1578 4050 1965 4187 
Q 2353 4325 2688 4325 
L 2869 4325 
z
M 925 2138 
Q 869 1716 869 1456 
Q 869 1156 980 804 
Q 1091 453 1309 247 
Q 1469 100 1697 100 
Q 1969 100 2183 356 
Q 2397 613 2397 1088 
Q 2397 1622 2184 2012 
Q 1972 2403 1581 2403 
Q 1463 2403 1327 2353 
Q 1191 2303 925 2138 
z
" transform="scale(0.015625)"/>
       </defs>
       <use xlink:href="#TimesNewRomanPSMT-36"/>
       <use xlink:href="#TimesNewRomanPSMT-30" x="50"/>
      </g>
     </g>
    </g>
    <g id="text_9">
     <!-- Total Time -->
     <g transform="translate(21.81 161.725) rotate(-90) scale(0.16 -0.16)">
      <defs>
       <path id="TimesNewRomanPSMT-54" d="M 3703 4238 
L 3750 3244 
L 3631 3244 
Q 3597 3506 3538 3619 
Q 3441 3800 3280 3886 
Q 3119 3972 2856 3972 
L 2259 3972 
L 2259 734 
Q 2259 344 2344 247 
Q 2463 116 2709 116 
L 2856 116 
L 2856 0 
L 1059 0 
L 1059 116 
L 1209 116 
Q 1478 116 1591 278 
Q 1659 378 1659 734 
L 1659 3972 
L 1150 3972 
Q 853 3972 728 3928 
Q 566 3869 450 3700 
Q 334 3531 313 3244 
L 194 3244 
L 244 4238 
L 3703 4238 
z
" transform="scale(0.015625)"/>
       <path id="TimesNewRomanPSMT-6f" d="M 1600 2947 
Q 2250 2947 2644 2453 
Q 2978 2031 2978 1484 
Q 2978 1100 2793 706 
Q 2609 313 2286 112 
Q 1963 -88 1566 -88 
Q 919 -88 538 428 
Q 216 863 216 1403 
Q 216 1797 411 2186 
Q 606 2575 925 2761 
Q 1244 2947 1600 2947 
z
M 1503 2744 
Q 1338 2744 1170 2645 
Q 1003 2547 900 2300 
Q 797 2053 797 1666 
Q 797 1041 1045 587 
Q 1294 134 1700 134 
Q 2003 134 2200 384 
Q 2397 634 2397 1244 
Q 2397 2006 2069 2444 
Q 1847 2744 1503 2744 
z
" transform="scale(0.015625)"/>
       <path id="TimesNewRomanPSMT-6d" d="M 1050 2338 
Q 1363 2650 1419 2697 
Q 1559 2816 1721 2881 
Q 1884 2947 2044 2947 
Q 2313 2947 2506 2790 
Q 2700 2634 2766 2338 
Q 3088 2713 3309 2830 
Q 3531 2947 3766 2947 
Q 3994 2947 4170 2830 
Q 4347 2713 4450 2447 
Q 4519 2266 4519 1878 
L 4519 647 
Q 4519 378 4559 278 
Q 4591 209 4675 161 
Q 4759 113 4950 113 
L 4950 0 
L 3538 0 
L 3538 113 
L 3597 113 
Q 3781 113 3884 184 
Q 3956 234 3988 344 
Q 4000 397 4000 647 
L 4000 1878 
Q 4000 2228 3916 2372 
Q 3794 2572 3525 2572 
Q 3359 2572 3192 2489 
Q 3025 2406 2788 2181 
L 2781 2147 
L 2788 2013 
L 2788 647 
Q 2788 353 2820 281 
Q 2853 209 2943 161 
Q 3034 113 3253 113 
L 3253 0 
L 1806 0 
L 1806 113 
Q 2044 113 2133 169 
Q 2222 225 2256 338 
Q 2272 391 2272 647 
L 2272 1878 
Q 2272 2228 2169 2381 
Q 2031 2581 1784 2581 
Q 1616 2581 1450 2491 
Q 1191 2353 1050 2181 
L 1050 647 
Q 1050 366 1089 281 
Q 1128 197 1204 155 
Q 1281 113 1516 113 
L 1516 0 
L 100 0 
L 100 113 
Q 297 113 375 155 
Q 453 197 493 289 
Q 534 381 534 647 
L 534 1741 
Q 534 2213 506 2350 
Q 484 2453 437 2492 
Q 391 2531 309 2531 
Q 222 2531 100 2484 
L 53 2597 
L 916 2947 
L 1050 2947 
L 1050 2338 
z
" transform="scale(0.015625)"/>
      </defs>
      <use xlink:href="#TimesNewRomanPSMT-54"/>
      <use xlink:href="#TimesNewRomanPSMT-6f" x="54.083984"/>
      <use xlink:href="#TimesNewRomanPSMT-74" x="104.083984"/>
      <use xlink:href="#TimesNewRomanPSMT-61" x="131.867188"/>
      <use xlink:href="#TimesNewRomanPSMT-6c" x="176.251953"/>
      <use xlink:href="#TimesNewRomanPSMT-20" x="204.035156"/>
      <use xlink:href="#TimesNewRomanPSMT-54" x="227.285156"/>
      <use xlink:href="#TimesNewRomanPSMT-69" x="284.869141"/>
      <use xlink:href="#TimesNewRomanPSMT-6d" x="312.652344"/>
      <use xlink:href="#TimesNewRomanPSMT-65" x="390.435547"/>
     </g>
    </g>
   </g>
   <g id="patch_18">
    <path d="M 50.2325 193.68 
L 50.2325 60.2 
" style="fill: none; stroke: #000000; stroke-width: 0.8; stroke-linejoin: miter; stroke-linecap: square"/>
   </g>
   <g id="patch_19">
    <path d="M 305.3625 193.68 
L 305.3625 60.2 
" style="fill: none; stroke: #000000; stroke-width: 0.8; stroke-linejoin: miter; stroke-linecap: square"/>
   </g>
   <g id="patch_20">
    <path d="M 50.2325 193.68 
L 305.3625 193.68 
" style="fill: none; stroke: #000000; stroke-width: 0.8; stroke-linejoin: miter; stroke-linecap: square"/>
   </g>
   <g id="patch_21">
    <path d="M 50.2325 60.2 
L 305.3625 60.2 
" style="fill: none; stroke: #000000; stroke-width: 0.8; stroke-linejoin: miter; stroke-linecap: square"/>
   </g>
   <g id="text_10">
    <!-- CIFAR10 -->
    <g transform="translate(146.825 54.2) scale(0.16 -0.16)">
     <defs>
      <path id="TimesNewRomanPSMT-43" d="M 3853 4334 
L 3950 2894 
L 3853 2894 
Q 3659 3541 3300 3825 
Q 2941 4109 2438 4109 
Q 2016 4109 1675 3895 
Q 1334 3681 1139 3212 
Q 944 2744 944 2047 
Q 944 1472 1128 1050 
Q 1313 628 1683 403 
Q 2053 178 2528 178 
Q 2941 178 3256 354 
Q 3572 531 3950 1056 
L 4047 994 
Q 3728 428 3303 165 
Q 2878 -97 2294 -97 
Q 1241 -97 663 684 
Q 231 1266 231 2053 
Q 231 2688 515 3219 
Q 800 3750 1298 4042 
Q 1797 4334 2388 4334 
Q 2847 4334 3294 4109 
Q 3425 4041 3481 4041 
Q 3566 4041 3628 4100 
Q 3709 4184 3744 4334 
L 3853 4334 
z
" transform="scale(0.015625)"/>
      <path id="TimesNewRomanPSMT-49" d="M 1975 116 
L 1975 0 
L 159 0 
L 159 116 
L 309 116 
Q 572 116 691 269 
Q 766 369 766 750 
L 766 3488 
Q 766 3809 725 3913 
Q 694 3991 597 4047 
Q 459 4122 309 4122 
L 159 4122 
L 159 4238 
L 1975 4238 
L 1975 4122 
L 1822 4122 
Q 1563 4122 1444 3969 
Q 1366 3869 1366 3488 
L 1366 750 
Q 1366 428 1406 325 
Q 1438 247 1538 191 
Q 1672 116 1822 116 
L 1975 116 
z
" transform="scale(0.015625)"/>
      <path id="TimesNewRomanPSMT-46" d="M 1309 4006 
L 1309 2341 
L 2081 2341 
Q 2347 2341 2470 2458 
Q 2594 2575 2634 2922 
L 2750 2922 
L 2750 1488 
L 2634 1488 
Q 2631 1734 2570 1850 
Q 2509 1966 2401 2023 
Q 2294 2081 2081 2081 
L 1309 2081 
L 1309 750 
Q 1309 428 1350 325 
Q 1381 247 1481 191 
Q 1619 116 1769 116 
L 1922 116 
L 1922 0 
L 103 0 
L 103 116 
L 253 116 
Q 516 116 634 269 
Q 709 369 709 750 
L 709 3488 
Q 709 3809 669 3913 
Q 638 3991 541 4047 
Q 406 4122 253 4122 
L 103 4122 
L 103 4238 
L 3256 4238 
L 3297 3306 
L 3188 3306 
Q 3106 3603 2998 3742 
Q 2891 3881 2733 3943 
Q 2575 4006 2244 4006 
L 1309 4006 
z
" transform="scale(0.015625)"/>
      <path id="TimesNewRomanPSMT-41" d="M 2928 1419 
L 1288 1419 
L 1000 750 
Q 894 503 894 381 
Q 894 284 986 211 
Q 1078 138 1384 116 
L 1384 0 
L 50 0 
L 50 116 
Q 316 163 394 238 
Q 553 388 747 847 
L 2238 4334 
L 2347 4334 
L 3822 809 
Q 4000 384 4145 257 
Q 4291 131 4550 116 
L 4550 0 
L 2878 0 
L 2878 116 
Q 3131 128 3220 200 
Q 3309 272 3309 375 
Q 3309 513 3184 809 
L 2928 1419 
z
M 2841 1650 
L 2122 3363 
L 1384 1650 
L 2841 1650 
z
" transform="scale(0.015625)"/>
      <path id="TimesNewRomanPSMT-52" d="M 4325 0 
L 3194 0 
L 1759 1981 
Q 1600 1975 1500 1975 
Q 1459 1975 1412 1976 
Q 1366 1978 1316 1981 
L 1316 750 
Q 1316 350 1403 253 
Q 1522 116 1759 116 
L 1925 116 
L 1925 0 
L 109 0 
L 109 116 
L 269 116 
Q 538 116 653 291 
Q 719 388 719 750 
L 719 3488 
Q 719 3888 631 3984 
Q 509 4122 269 4122 
L 109 4122 
L 109 4238 
L 1653 4238 
Q 2328 4238 2648 4139 
Q 2969 4041 3192 3777 
Q 3416 3513 3416 3147 
Q 3416 2756 3161 2468 
Q 2906 2181 2372 2063 
L 3247 847 
Q 3547 428 3762 290 
Q 3978 153 4325 116 
L 4325 0 
z
M 1316 2178 
Q 1375 2178 1419 2176 
Q 1463 2175 1491 2175 
Q 2097 2175 2405 2437 
Q 2713 2700 2713 3106 
Q 2713 3503 2464 3751 
Q 2216 4000 1806 4000 
Q 1625 4000 1316 3941 
L 1316 2178 
z
" transform="scale(0.015625)"/>
     </defs>
     <use xlink:href="#TimesNewRomanPSMT-43"/>
     <use xlink:href="#TimesNewRomanPSMT-49" x="66.699219"/>
     <use xlink:href="#TimesNewRomanPSMT-46" x="100"/>
     <use xlink:href="#TimesNewRomanPSMT-41" x="148.240234"/>
     <use xlink:href="#TimesNewRomanPSMT-52" x="220.457031"/>
     <use xlink:href="#TimesNewRomanPSMT-31" x="287.15625"/>
     <use xlink:href="#TimesNewRomanPSMT-30" x="337.15625"/>
    </g>
   </g>
  </g>
  <g id="axes_2">
   <g id="patch_22">
    <path d="M 369.1025 193.68 
L 624.2325 193.68 
L 624.2325 60.2 
L 369.1025 60.2 
z
" style="fill: #ffffff"/>
   </g>
   <g id="patch_23">
    <path d="M 380.699318 193.68 
L 391.743907 193.68 
L 391.743907 122.690897 
L 380.699318 122.690897 
z
" clip-path="url(#pea2715b8be)" style="fill: #1f77b4"/>
   </g>
   <g id="patch_24">
    <path d="M 469.056028 193.68 
L 480.100617 193.68 
L 480.100617 125.565371 
L 469.056028 125.565371 
z
" clip-path="url(#pea2715b8be)" style="fill: #1f77b4"/>
   </g>
   <g id="patch_25">
    <path d="M 557.412738 193.68 
L 568.457327 193.68 
L 568.457327 108.854815 
L 557.412738 108.854815 
z
" clip-path="url(#pea2715b8be)" style="fill: #1f77b4"/>
   </g>
   <g id="patch_26">
    <path d="M 391.743907 193.68 
L 402.788496 193.68 
L 402.788496 98.990733 
L 391.743907 98.990733 
z
" clip-path="url(#pea2715b8be)" style="fill: #ff7f0e"/>
   </g>
   <g id="patch_27">
    <path d="M 480.100617 193.68 
L 491.145206 193.68 
L 491.145206 106.115251 
L 480.100617 106.115251 
z
" clip-path="url(#pea2715b8be)" style="fill: #ff7f0e"/>
   </g>
   <g id="patch_28">
    <path d="M 568.457327 193.68 
L 579.501916 193.68 
L 579.501916 104.930492 
L 568.457327 104.930492 
z
" clip-path="url(#pea2715b8be)" style="fill: #ff7f0e"/>
   </g>
   <g id="patch_29">
    <path d="M 402.788496 193.68 
L 413.833084 193.68 
L 413.833084 112.394925 
L 402.788496 112.394925 
z
" clip-path="url(#pea2715b8be)" style="fill: #2ca02c"/>
   </g>
   <g id="patch_30">
    <path d="M 491.145206 193.68 
L 502.189794 193.68 
L 502.189794 97.783125 
L 491.145206 97.783125 
z
" clip-path="url(#pea2715b8be)" style="fill: #2ca02c"/>
   </g>
   <g id="patch_31">
    <path d="M 579.501916 193.68 
L 590.546504 193.68 
L 590.546504 66.55619 
L 579.501916 66.55619 
z
" clip-path="url(#pea2715b8be)" style="fill: #2ca02c"/>
   </g>
   <g id="patch_32">
    <path d="M 413.833084 193.68 
L 424.877673 193.68 
L 424.877673 88.714828 
L 413.833084 88.714828 
z
" clip-path="url(#pea2715b8be)" style="fill: #d62728"/>
   </g>
   <g id="patch_33">
    <path d="M 502.189794 193.68 
L 513.234383 193.68 
L 513.234383 116.183222 
L 502.189794 116.183222 
z
" clip-path="url(#pea2715b8be)" style="fill: #d62728"/>
   </g>
   <g id="patch_34">
    <path d="M 590.546504 193.68 
L 601.591093 193.68 
L 601.591093 108.785288 
L 590.546504 108.785288 
z
" clip-path="url(#pea2715b8be)" style="fill: #d62728"/>
   </g>
   <g id="patch_35">
    <path d="M 424.877673 193.68 
L 435.922262 193.68 
L 435.922262 102.633143 
L 424.877673 102.633143 
z
" clip-path="url(#pea2715b8be)" style="fill: #9467bd"/>
   </g>
   <g id="patch_36">
    <path d="M 513.234383 193.68 
L 524.278972 193.68 
L 524.278972 111.815604 
L 513.234383 111.815604 
z
" clip-path="url(#pea2715b8be)" style="fill: #9467bd"/>
   </g>
   <g id="patch_37">
    <path d="M 601.591093 193.68 
L 612.635682 193.68 
L 612.635682 113.059743 
L 601.591093 113.059743 
z
" clip-path="url(#pea2715b8be)" style="fill: #9467bd"/>
   </g>
   <g id="matplotlib.axis_3">
    <g id="xtick_4">
     <g id="line2d_12">
      <g>
       <use xlink:href="#m113a2a2262" x="413.833084" y="193.68" style="stroke: #000000; stroke-width: 0.8"/>
      </g>
     </g>
     <g id="text_11">
      <!-- 0.1 -->
      <g transform="translate(405.083084 210.40125) scale(0.14 -0.14)">
       <use xlink:href="#TimesNewRomanPSMT-30"/>
       <use xlink:href="#TimesNewRomanPSMT-2e" x="50"/>
       <use xlink:href="#TimesNewRomanPSMT-31" x="75"/>
      </g>
     </g>
    </g>
    <g id="xtick_5">
     <g id="line2d_13">
      <g>
       <use xlink:href="#m113a2a2262" x="502.189794" y="193.68" style="stroke: #000000; stroke-width: 0.8"/>
      </g>
     </g>
     <g id="text_12">
      <!-- 0.5 -->
      <g transform="translate(493.439794 210.40125) scale(0.14 -0.14)">
       <use xlink:href="#TimesNewRomanPSMT-30"/>
       <use xlink:href="#TimesNewRomanPSMT-2e" x="50"/>
       <use xlink:href="#TimesNewRomanPSMT-35" x="75"/>
      </g>
     </g>
    </g>
    <g id="xtick_6">
     <g id="line2d_14">
      <g>
       <use xlink:href="#m113a2a2262" x="590.546504" y="193.68" style="stroke: #000000; stroke-width: 0.8"/>
      </g>
     </g>
     <g id="text_13">
      <!-- 1.0 -->
      <g transform="translate(581.796504 210.40125) scale(0.14 -0.14)">
       <use xlink:href="#TimesNewRomanPSMT-31"/>
       <use xlink:href="#TimesNewRomanPSMT-2e" x="50"/>
       <use xlink:href="#TimesNewRomanPSMT-30" x="75"/>
      </g>
     </g>
    </g>
    <g id="text_14">
     <!-- dirichlet alpha -->
     <g transform="translate(450.68625 228.505938) scale(0.16 -0.16)">
      <use xlink:href="#TimesNewRomanPSMT-64"/>
      <use xlink:href="#TimesNewRomanPSMT-69" x="50"/>
      <use xlink:href="#TimesNewRomanPSMT-72" x="77.783203"/>
      <use xlink:href="#TimesNewRomanPSMT-69" x="111.083984"/>
      <use xlink:href="#TimesNewRomanPSMT-63" x="138.867188"/>
      <use xlink:href="#TimesNewRomanPSMT-68" x="183.251953"/>
      <use xlink:href="#TimesNewRomanPSMT-6c" x="233.251953"/>
      <use xlink:href="#TimesNewRomanPSMT-65" x="261.035156"/>
      <use xlink:href="#TimesNewRomanPSMT-74" x="305.419922"/>
      <use xlink:href="#TimesNewRomanPSMT-20" x="333.203125"/>
      <use xlink:href="#TimesNewRomanPSMT-61" x="358.203125"/>
      <use xlink:href="#TimesNewRomanPSMT-6c" x="402.587891"/>
      <use xlink:href="#TimesNewRomanPSMT-70" x="430.371094"/>
      <use xlink:href="#TimesNewRomanPSMT-68" x="480.371094"/>
      <use xlink:href="#TimesNewRomanPSMT-61" x="530.371094"/>
     </g>
    </g>
   </g>
   <g id="matplotlib.axis_4">
    <g id="ytick_5">
     <g id="line2d_15">
      <path d="M 369.1025 193.68 
L 624.2325 193.68 
" clip-path="url(#pea2715b8be)" style="fill: none; stroke-dasharray: 2.96,1.28; stroke-dashoffset: 0; stroke: #b0b0b0; stroke-opacity: 0.6; stroke-width: 0.8"/>
     </g>
     <g id="line2d_16">
      <g>
       <use xlink:href="#m28e2669895" x="369.1025" y="193.68" style="stroke: #000000; stroke-width: 0.8"/>
      </g>
     </g>
     <g id="text_15">
      <!-- 0 -->
      <g transform="translate(355.1025 198.540625) scale(0.14 -0.14)">
       <use xlink:href="#TimesNewRomanPSMT-30"/>
      </g>
     </g>
    </g>
    <g id="ytick_6">
     <g id="line2d_17">
      <path d="M 369.1025 130.855145 
L 624.2325 130.855145 
" clip-path="url(#pea2715b8be)" style="fill: none; stroke-dasharray: 2.96,1.28; stroke-dashoffset: 0; stroke: #b0b0b0; stroke-opacity: 0.6; stroke-width: 0.8"/>
     </g>
     <g id="line2d_18">
      <g>
       <use xlink:href="#m28e2669895" x="369.1025" y="130.855145" style="stroke: #000000; stroke-width: 0.8"/>
      </g>
     </g>
     <g id="text_16">
      <!-- 200 -->
      <g transform="translate(341.1025 135.71577) scale(0.14 -0.14)">
       <use xlink:href="#TimesNewRomanPSMT-32"/>
       <use xlink:href="#TimesNewRomanPSMT-30" x="50"/>
       <use xlink:href="#TimesNewRomanPSMT-30" x="100"/>
      </g>
     </g>
    </g>
    <g id="ytick_7">
     <g id="line2d_19">
      <path d="M 369.1025 68.030289 
L 624.2325 68.030289 
" clip-path="url(#pea2715b8be)" style="fill: none; stroke-dasharray: 2.96,1.28; stroke-dashoffset: 0; stroke: #b0b0b0; stroke-opacity: 0.6; stroke-width: 0.8"/>
     </g>
     <g id="line2d_20">
      <g>
       <use xlink:href="#m28e2669895" x="369.1025" y="68.030289" style="stroke: #000000; stroke-width: 0.8"/>
      </g>
     </g>
     <g id="text_17">
      <!-- 400 -->
      <g transform="translate(341.1025 72.890914) scale(0.14 -0.14)">
       <use xlink:href="#TimesNewRomanPSMT-34"/>
       <use xlink:href="#TimesNewRomanPSMT-30" x="50"/>
       <use xlink:href="#TimesNewRomanPSMT-30" x="100"/>
      </g>
     </g>
    </g>
    <g id="text_18">
     <!-- Total Energy -->
     <g transform="translate(333.65 168.22375) rotate(-90) scale(0.16 -0.16)">
      <defs>
       <path id="TimesNewRomanPSMT-45" d="M 1338 4006 
L 1338 2331 
L 2269 2331 
Q 2631 2331 2753 2441 
Q 2916 2584 2934 2947 
L 3050 2947 
L 3050 1472 
L 2934 1472 
Q 2891 1781 2847 1869 
Q 2791 1978 2662 2040 
Q 2534 2103 2269 2103 
L 1338 2103 
L 1338 706 
Q 1338 425 1363 364 
Q 1388 303 1450 267 
Q 1513 231 1688 231 
L 2406 231 
Q 2766 231 2928 281 
Q 3091 331 3241 478 
Q 3434 672 3638 1063 
L 3763 1063 
L 3397 0 
L 131 0 
L 131 116 
L 281 116 
Q 431 116 566 188 
Q 666 238 702 338 
Q 738 438 738 747 
L 738 3500 
Q 738 3903 656 3997 
Q 544 4122 281 4122 
L 131 4122 
L 131 4238 
L 3397 4238 
L 3444 3309 
L 3322 3309 
Q 3256 3644 3176 3769 
Q 3097 3894 2941 3959 
Q 2816 4006 2500 4006 
L 1338 4006 
z
" transform="scale(0.015625)"/>
       <path id="TimesNewRomanPSMT-6e" d="M 1034 2341 
Q 1538 2947 1994 2947 
Q 2228 2947 2397 2830 
Q 2566 2713 2666 2444 
Q 2734 2256 2734 1869 
L 2734 647 
Q 2734 375 2778 278 
Q 2813 200 2889 156 
Q 2966 113 3172 113 
L 3172 0 
L 1756 0 
L 1756 113 
L 1816 113 
Q 2016 113 2095 173 
Q 2175 234 2206 353 
Q 2219 400 2219 647 
L 2219 1819 
Q 2219 2209 2117 2386 
Q 2016 2563 1775 2563 
Q 1403 2563 1034 2156 
L 1034 647 
Q 1034 356 1069 288 
Q 1113 197 1189 155 
Q 1266 113 1500 113 
L 1500 0 
L 84 0 
L 84 113 
L 147 113 
Q 366 113 442 223 
Q 519 334 519 647 
L 519 1709 
Q 519 2225 495 2337 
Q 472 2450 423 2490 
Q 375 2531 294 2531 
Q 206 2531 84 2484 
L 38 2597 
L 900 2947 
L 1034 2947 
L 1034 2341 
z
" transform="scale(0.015625)"/>
       <path id="TimesNewRomanPSMT-67" d="M 966 1044 
Q 703 1172 562 1401 
Q 422 1631 422 1909 
Q 422 2334 742 2640 
Q 1063 2947 1563 2947 
Q 1972 2947 2272 2747 
L 2878 2747 
Q 3013 2747 3034 2739 
Q 3056 2731 3066 2713 
Q 3084 2684 3084 2613 
Q 3084 2531 3069 2500 
Q 3059 2484 3036 2475 
Q 3013 2466 2878 2466 
L 2506 2466 
Q 2681 2241 2681 1891 
Q 2681 1491 2375 1206 
Q 2069 922 1553 922 
Q 1341 922 1119 984 
Q 981 866 932 777 
Q 884 688 884 625 
Q 884 572 936 522 
Q 988 472 1138 450 
Q 1225 438 1575 428 
Q 2219 413 2409 384 
Q 2700 344 2873 169 
Q 3047 -6 3047 -263 
Q 3047 -616 2716 -925 
Q 2228 -1381 1444 -1381 
Q 841 -1381 425 -1109 
Q 191 -953 191 -784 
Q 191 -709 225 -634 
Q 278 -519 444 -313 
Q 466 -284 763 25 
Q 600 122 533 198 
Q 466 275 466 372 
Q 466 481 555 628 
Q 644 775 966 1044 
z
M 1509 2797 
Q 1278 2797 1122 2612 
Q 966 2428 966 2047 
Q 966 1553 1178 1281 
Q 1341 1075 1591 1075 
Q 1828 1075 1981 1253 
Q 2134 1431 2134 1813 
Q 2134 2309 1919 2591 
Q 1759 2797 1509 2797 
z
M 934 0 
Q 788 -159 713 -296 
Q 638 -434 638 -550 
Q 638 -700 819 -813 
Q 1131 -1006 1722 -1006 
Q 2284 -1006 2551 -807 
Q 2819 -609 2819 -384 
Q 2819 -222 2659 -153 
Q 2497 -84 2016 -72 
Q 1313 -53 934 0 
z
" transform="scale(0.015625)"/>
       <path id="TimesNewRomanPSMT-79" d="M 38 2863 
L 1372 2863 
L 1372 2747 
L 1306 2747 
Q 1166 2747 1095 2686 
Q 1025 2625 1025 2534 
Q 1025 2413 1128 2197 
L 1825 753 
L 2466 2334 
Q 2519 2463 2519 2588 
Q 2519 2644 2497 2672 
Q 2472 2706 2419 2726 
Q 2366 2747 2231 2747 
L 2231 2863 
L 3163 2863 
L 3163 2747 
Q 3047 2734 2984 2696 
Q 2922 2659 2847 2556 
Q 2819 2513 2741 2316 
L 1575 -541 
Q 1406 -956 1132 -1168 
Q 859 -1381 606 -1381 
Q 422 -1381 303 -1275 
Q 184 -1169 184 -1031 
Q 184 -900 270 -820 
Q 356 -741 506 -741 
Q 609 -741 788 -809 
Q 913 -856 944 -856 
Q 1038 -856 1148 -759 
Q 1259 -663 1372 -384 
L 1575 113 
L 547 2272 
Q 500 2369 397 2513 
Q 319 2622 269 2659 
Q 197 2709 38 2747 
L 38 2863 
z
" transform="scale(0.015625)"/>
      </defs>
      <use xlink:href="#TimesNewRomanPSMT-54"/>
      <use xlink:href="#TimesNewRomanPSMT-6f" x="54.083984"/>
      <use xlink:href="#TimesNewRomanPSMT-74" x="104.083984"/>
      <use xlink:href="#TimesNewRomanPSMT-61" x="131.867188"/>
      <use xlink:href="#TimesNewRomanPSMT-6c" x="176.251953"/>
      <use xlink:href="#TimesNewRomanPSMT-20" x="204.035156"/>
      <use xlink:href="#TimesNewRomanPSMT-45" x="229.035156"/>
      <use xlink:href="#TimesNewRomanPSMT-6e" x="290.119141"/>
      <use xlink:href="#TimesNewRomanPSMT-65" x="340.119141"/>
      <use xlink:href="#TimesNewRomanPSMT-72" x="384.503906"/>
      <use xlink:href="#TimesNewRomanPSMT-67" x="416.054688"/>
      <use xlink:href="#TimesNewRomanPSMT-79" x="466.054688"/>
     </g>
    </g>
   </g>
   <g id="patch_38">
    <path d="M 369.1025 193.68 
L 369.1025 60.2 
" style="fill: none; stroke: #000000; stroke-width: 0.8; stroke-linejoin: miter; stroke-linecap: square"/>
   </g>
   <g id="patch_39">
    <path d="M 624.2325 193.68 
L 624.2325 60.2 
" style="fill: none; stroke: #000000; stroke-width: 0.8; stroke-linejoin: miter; stroke-linecap: square"/>
   </g>
   <g id="patch_40">
    <path d="M 369.1025 193.68 
L 624.2325 193.68 
" style="fill: none; stroke: #000000; stroke-width: 0.8; stroke-linejoin: miter; stroke-linecap: square"/>
   </g>
   <g id="patch_41">
    <path d="M 369.1025 60.2 
L 624.2325 60.2 
" style="fill: none; stroke: #000000; stroke-width: 0.8; stroke-linejoin: miter; stroke-linecap: square"/>
   </g>
   <g id="text_19">
    <!-- CIFAR10 -->
    <g transform="translate(465.695 54.2) scale(0.16 -0.16)">
     <use xlink:href="#TimesNewRomanPSMT-43"/>
     <use xlink:href="#TimesNewRomanPSMT-49" x="66.699219"/>
     <use xlink:href="#TimesNewRomanPSMT-46" x="100"/>
     <use xlink:href="#TimesNewRomanPSMT-41" x="148.240234"/>
     <use xlink:href="#TimesNewRomanPSMT-52" x="220.457031"/>
     <use xlink:href="#TimesNewRomanPSMT-31" x="287.15625"/>
     <use xlink:href="#TimesNewRomanPSMT-30" x="337.15625"/>
    </g>
   </g>
  </g>
  <g id="axes_3">
   <g id="patch_42">
    <path d="M 50.2325 399.6 
L 305.3625 399.6 
L 305.3625 266.12 
L 50.2325 266.12 
z
" style="fill: #ffffff"/>
   </g>
   <g id="patch_43">
    <path d="M 61.829318 399.6 
L 72.873907 399.6 
L 72.873907 347.397379 
L 61.829318 347.397379 
z
" clip-path="url(#p91a491c013)" style="fill: #1f77b4"/>
   </g>
   <g id="patch_44">
    <path d="M 150.186028 399.6 
L 161.230617 399.6 
L 161.230617 351.808052 
L 150.186028 351.808052 
z
" clip-path="url(#p91a491c013)" style="fill: #1f77b4"/>
   </g>
   <g id="patch_45">
    <path d="M 238.542738 399.6 
L 249.587327 399.6 
L 249.587327 353.875394 
L 238.542738 353.875394 
z
" clip-path="url(#p91a491c013)" style="fill: #1f77b4"/>
   </g>
   <g id="patch_46">
    <path d="M 72.873907 399.6 
L 83.918496 399.6 
L 83.918496 304.333066 
L 72.873907 304.333066 
z
" clip-path="url(#p91a491c013)" style="fill: #ff7f0e"/>
   </g>
   <g id="patch_47">
    <path d="M 161.230617 399.6 
L 172.275206 399.6 
L 172.275206 315.013942 
L 161.230617 315.013942 
z
" clip-path="url(#p91a491c013)" style="fill: #ff7f0e"/>
   </g>
   <g id="patch_48">
    <path d="M 249.587327 399.6 
L 260.631916 399.6 
L 260.631916 317.420323 
L 249.587327 317.420323 
z
" clip-path="url(#p91a491c013)" style="fill: #ff7f0e"/>
   </g>
   <g id="patch_49">
    <path d="M 83.918496 399.6 
L 94.963084 399.6 
L 94.963084 351.09713 
L 83.918496 351.09713 
z
" clip-path="url(#p91a491c013)" style="fill: #2ca02c"/>
   </g>
   <g id="patch_50">
    <path d="M 172.275206 399.6 
L 183.319794 399.6 
L 183.319794 351.087462 
L 172.275206 351.087462 
z
" clip-path="url(#p91a491c013)" style="fill: #2ca02c"/>
   </g>
   <g id="patch_51">
    <path d="M 260.631916 399.6 
L 271.676504 399.6 
L 271.676504 325.215643 
L 260.631916 325.215643 
z
" clip-path="url(#p91a491c013)" style="fill: #2ca02c"/>
   </g>
   <g id="patch_52">
    <path d="M 94.963084 399.6 
L 106.007673 399.6 
L 106.007673 321.625339 
L 94.963084 321.625339 
z
" clip-path="url(#p91a491c013)" style="fill: #d62728"/>
   </g>
   <g id="patch_53">
    <path d="M 183.319794 399.6 
L 194.364383 399.6 
L 194.364383 272.47619 
L 183.319794 272.47619 
z
" clip-path="url(#p91a491c013)" style="fill: #d62728"/>
   </g>
   <g id="patch_54">
    <path d="M 271.676504 399.6 
L 282.721093 399.6 
L 282.721093 295.38456 
L 271.676504 295.38456 
z
" clip-path="url(#p91a491c013)" style="fill: #d62728"/>
   </g>
   <g id="patch_55">
    <path d="M 106.007673 399.6 
L 117.052262 399.6 
L 117.052262 346.418946 
L 106.007673 346.418946 
z
" clip-path="url(#p91a491c013)" style="fill: #9467bd"/>
   </g>
   <g id="patch_56">
    <path d="M 194.364383 399.6 
L 205.408972 399.6 
L 205.408972 321.994972 
L 194.364383 321.994972 
z
" clip-path="url(#p91a491c013)" style="fill: #9467bd"/>
   </g>
   <g id="patch_57">
    <path d="M 282.721093 399.6 
L 293.765682 399.6 
L 293.765682 282.6723 
L 282.721093 282.6723 
z
" clip-path="url(#p91a491c013)" style="fill: #9467bd"/>
   </g>
   <g id="matplotlib.axis_5">
    <g id="xtick_7">
     <g id="line2d_21">
      <g>
       <use xlink:href="#m113a2a2262" x="94.963084" y="399.6" style="stroke: #000000; stroke-width: 0.8"/>
      </g>
     </g>
     <g id="text_20">
      <!-- 0.1 -->
      <g transform="translate(86.213084 416.32125) scale(0.14 -0.14)">
       <use xlink:href="#TimesNewRomanPSMT-30"/>
       <use xlink:href="#TimesNewRomanPSMT-2e" x="50"/>
       <use xlink:href="#TimesNewRomanPSMT-31" x="75"/>
      </g>
     </g>
    </g>
    <g id="xtick_8">
     <g id="line2d_22">
      <g>
       <use xlink:href="#m113a2a2262" x="183.319794" y="399.6" style="stroke: #000000; stroke-width: 0.8"/>
      </g>
     </g>
     <g id="text_21">
      <!-- 0.5 -->
      <g transform="translate(174.569794 416.32125) scale(0.14 -0.14)">
       <use xlink:href="#TimesNewRomanPSMT-30"/>
       <use xlink:href="#TimesNewRomanPSMT-2e" x="50"/>
       <use xlink:href="#TimesNewRomanPSMT-35" x="75"/>
      </g>
     </g>
    </g>
    <g id="xtick_9">
     <g id="line2d_23">
      <g>
       <use xlink:href="#m113a2a2262" x="271.676504" y="399.6" style="stroke: #000000; stroke-width: 0.8"/>
      </g>
     </g>
     <g id="text_22">
      <!-- 1.0 -->
      <g transform="translate(262.926504 416.32125) scale(0.14 -0.14)">
       <use xlink:href="#TimesNewRomanPSMT-31"/>
       <use xlink:href="#TimesNewRomanPSMT-2e" x="50"/>
       <use xlink:href="#TimesNewRomanPSMT-30" x="75"/>
      </g>
     </g>
    </g>
    <g id="text_23">
     <!-- dirichlet alpha -->
     <g transform="translate(131.81625 434.425938) scale(0.16 -0.16)">
      <use xlink:href="#TimesNewRomanPSMT-64"/>
      <use xlink:href="#TimesNewRomanPSMT-69" x="50"/>
      <use xlink:href="#TimesNewRomanPSMT-72" x="77.783203"/>
      <use xlink:href="#TimesNewRomanPSMT-69" x="111.083984"/>
      <use xlink:href="#TimesNewRomanPSMT-63" x="138.867188"/>
      <use xlink:href="#TimesNewRomanPSMT-68" x="183.251953"/>
      <use xlink:href="#TimesNewRomanPSMT-6c" x="233.251953"/>
      <use xlink:href="#TimesNewRomanPSMT-65" x="261.035156"/>
      <use xlink:href="#TimesNewRomanPSMT-74" x="305.419922"/>
      <use xlink:href="#TimesNewRomanPSMT-20" x="333.203125"/>
      <use xlink:href="#TimesNewRomanPSMT-61" x="358.203125"/>
      <use xlink:href="#TimesNewRomanPSMT-6c" x="402.587891"/>
      <use xlink:href="#TimesNewRomanPSMT-70" x="430.371094"/>
      <use xlink:href="#TimesNewRomanPSMT-68" x="480.371094"/>
      <use xlink:href="#TimesNewRomanPSMT-61" x="530.371094"/>
     </g>
    </g>
   </g>
   <g id="matplotlib.axis_6">
    <g id="ytick_8">
     <g id="line2d_24">
      <path d="M 50.2325 399.6 
L 305.3625 399.6 
" clip-path="url(#p91a491c013)" style="fill: none; stroke-dasharray: 2.96,1.28; stroke-dashoffset: 0; stroke: #b0b0b0; stroke-opacity: 0.6; stroke-width: 0.8"/>
     </g>
     <g id="line2d_25">
      <g>
       <use xlink:href="#m28e2669895" x="50.2325" y="399.6" style="stroke: #000000; stroke-width: 0.8"/>
      </g>
     </g>
     <g id="text_24">
      <!-- 0 -->
      <g transform="translate(36.2325 404.460625) scale(0.14 -0.14)">
       <use xlink:href="#TimesNewRomanPSMT-30"/>
      </g>
     </g>
    </g>
    <g id="ytick_9">
     <g id="line2d_26">
      <path d="M 50.2325 334.870796 
L 305.3625 334.870796 
" clip-path="url(#p91a491c013)" style="fill: none; stroke-dasharray: 2.96,1.28; stroke-dashoffset: 0; stroke: #b0b0b0; stroke-opacity: 0.6; stroke-width: 0.8"/>
     </g>
     <g id="line2d_27">
      <g>
       <use xlink:href="#m28e2669895" x="50.2325" y="334.870796" style="stroke: #000000; stroke-width: 0.8"/>
      </g>
     </g>
     <g id="text_25">
      <!-- 20 -->
      <g transform="translate(29.2325 339.731421) scale(0.14 -0.14)">
       <use xlink:href="#TimesNewRomanPSMT-32"/>
       <use xlink:href="#TimesNewRomanPSMT-30" x="50"/>
      </g>
     </g>
    </g>
    <g id="ytick_10">
     <g id="line2d_28">
      <path d="M 50.2325 270.141593 
L 305.3625 270.141593 
" clip-path="url(#p91a491c013)" style="fill: none; stroke-dasharray: 2.96,1.28; stroke-dashoffset: 0; stroke: #b0b0b0; stroke-opacity: 0.6; stroke-width: 0.8"/>
     </g>
     <g id="line2d_29">
      <g>
       <use xlink:href="#m28e2669895" x="50.2325" y="270.141593" style="stroke: #000000; stroke-width: 0.8"/>
      </g>
     </g>
     <g id="text_26">
      <!-- 40 -->
      <g transform="translate(29.2325 275.002218) scale(0.14 -0.14)">
       <use xlink:href="#TimesNewRomanPSMT-34"/>
       <use xlink:href="#TimesNewRomanPSMT-30" x="50"/>
      </g>
     </g>
    </g>
    <g id="text_27">
     <!-- Total Time -->
     <g transform="translate(21.81 367.645) rotate(-90) scale(0.16 -0.16)">
      <use xlink:href="#TimesNewRomanPSMT-54"/>
      <use xlink:href="#TimesNewRomanPSMT-6f" x="54.083984"/>
      <use xlink:href="#TimesNewRomanPSMT-74" x="104.083984"/>
      <use xlink:href="#TimesNewRomanPSMT-61" x="131.867188"/>
      <use xlink:href="#TimesNewRomanPSMT-6c" x="176.251953"/>
      <use xlink:href="#TimesNewRomanPSMT-20" x="204.035156"/>
      <use xlink:href="#TimesNewRomanPSMT-54" x="227.285156"/>
      <use xlink:href="#TimesNewRomanPSMT-69" x="284.869141"/>
      <use xlink:href="#TimesNewRomanPSMT-6d" x="312.652344"/>
      <use xlink:href="#TimesNewRomanPSMT-65" x="390.435547"/>
     </g>
    </g>
   </g>
   <g id="patch_58">
    <path d="M 50.2325 399.6 
L 50.2325 266.12 
" style="fill: none; stroke: #000000; stroke-width: 0.8; stroke-linejoin: miter; stroke-linecap: square"/>
   </g>
   <g id="patch_59">
    <path d="M 305.3625 399.6 
L 305.3625 266.12 
" style="fill: none; stroke: #000000; stroke-width: 0.8; stroke-linejoin: miter; stroke-linecap: square"/>
   </g>
   <g id="patch_60">
    <path d="M 50.2325 399.6 
L 305.3625 399.6 
" style="fill: none; stroke: #000000; stroke-width: 0.8; stroke-linejoin: miter; stroke-linecap: square"/>
   </g>
   <g id="patch_61">
    <path d="M 50.2325 266.12 
L 305.3625 266.12 
" style="fill: none; stroke: #000000; stroke-width: 0.8; stroke-linejoin: miter; stroke-linecap: square"/>
   </g>
   <g id="text_28">
    <!-- Fashion -->
    <g transform="translate(152.46125 260.12) scale(0.16 -0.16)">
     <defs>
      <path id="TimesNewRomanPSMT-73" d="M 2050 2947 
L 2050 1972 
L 1947 1972 
Q 1828 2431 1642 2597 
Q 1456 2763 1169 2763 
Q 950 2763 815 2647 
Q 681 2531 681 2391 
Q 681 2216 781 2091 
Q 878 1963 1175 1819 
L 1631 1597 
Q 2266 1288 2266 781 
Q 2266 391 1970 151 
Q 1675 -88 1309 -88 
Q 1047 -88 709 6 
Q 606 38 541 38 
Q 469 38 428 -44 
L 325 -44 
L 325 978 
L 428 978 
Q 516 541 762 319 
Q 1009 97 1316 97 
Q 1531 97 1667 223 
Q 1803 350 1803 528 
Q 1803 744 1651 891 
Q 1500 1038 1047 1263 
Q 594 1488 453 1669 
Q 313 1847 313 2119 
Q 313 2472 555 2709 
Q 797 2947 1181 2947 
Q 1350 2947 1591 2875 
Q 1750 2828 1803 2828 
Q 1853 2828 1881 2850 
Q 1909 2872 1947 2947 
L 2050 2947 
z
" transform="scale(0.015625)"/>
     </defs>
     <use xlink:href="#TimesNewRomanPSMT-46"/>
     <use xlink:href="#TimesNewRomanPSMT-61" x="55.615234"/>
     <use xlink:href="#TimesNewRomanPSMT-73" x="100"/>
     <use xlink:href="#TimesNewRomanPSMT-68" x="138.916016"/>
     <use xlink:href="#TimesNewRomanPSMT-69" x="188.916016"/>
     <use xlink:href="#TimesNewRomanPSMT-6f" x="216.699219"/>
     <use xlink:href="#TimesNewRomanPSMT-6e" x="266.699219"/>
    </g>
   </g>
  </g>
  <g id="axes_4">
   <g id="patch_62">
    <path d="M 369.1025 399.6 
L 624.2325 399.6 
L 624.2325 266.12 
L 369.1025 266.12 
z
" style="fill: #ffffff"/>
   </g>
   <g id="patch_63">
    <path d="M 380.699318 399.6 
L 391.743907 399.6 
L 391.743907 371.248454 
L 380.699318 371.248454 
z
" clip-path="url(#pa72fb77c40)" style="fill: #1f77b4"/>
   </g>
   <g id="patch_64">
    <path d="M 469.056028 399.6 
L 480.100617 399.6 
L 480.100617 373.102476 
L 469.056028 373.102476 
z
" clip-path="url(#pa72fb77c40)" style="fill: #1f77b4"/>
   </g>
   <g id="patch_65">
    <path d="M 557.412738 399.6 
L 568.457327 399.6 
L 568.457327 363.81143 
L 557.412738 363.81143 
z
" clip-path="url(#pa72fb77c40)" style="fill: #1f77b4"/>
   </g>
   <g id="patch_66">
    <path d="M 391.743907 399.6 
L 402.788496 399.6 
L 402.788496 359.940783 
L 391.743907 359.940783 
z
" clip-path="url(#pa72fb77c40)" style="fill: #ff7f0e"/>
   </g>
   <g id="patch_67">
    <path d="M 480.100617 399.6 
L 491.145206 399.6 
L 491.145206 360.143574 
L 480.100617 360.143574 
z
" clip-path="url(#pa72fb77c40)" style="fill: #ff7f0e"/>
   </g>
   <g id="patch_68">
    <path d="M 568.457327 399.6 
L 579.501916 399.6 
L 579.501916 360.265976 
L 568.457327 360.265976 
z
" clip-path="url(#pa72fb77c40)" style="fill: #ff7f0e"/>
   </g>
   <g id="patch_69">
    <path d="M 402.788496 399.6 
L 413.833084 399.6 
L 413.833084 348.435803 
L 402.788496 348.435803 
z
" clip-path="url(#pa72fb77c40)" style="fill: #2ca02c"/>
   </g>
   <g id="patch_70">
    <path d="M 491.145206 399.6 
L 502.189794 399.6 
L 502.189794 351.827535 
L 491.145206 351.827535 
z
" clip-path="url(#pa72fb77c40)" style="fill: #2ca02c"/>
   </g>
   <g id="patch_71">
    <path d="M 579.501916 399.6 
L 590.546504 399.6 
L 590.546504 272.47619 
L 579.501916 272.47619 
z
" clip-path="url(#pa72fb77c40)" style="fill: #2ca02c"/>
   </g>
   <g id="patch_72">
    <path d="M 413.833084 399.6 
L 424.877673 399.6 
L 424.877673 361.905878 
L 413.833084 361.905878 
z
" clip-path="url(#pa72fb77c40)" style="fill: #d62728"/>
   </g>
   <g id="patch_73">
    <path d="M 502.189794 399.6 
L 513.234383 399.6 
L 513.234383 354.880523 
L 502.189794 354.880523 
z
" clip-path="url(#pa72fb77c40)" style="fill: #d62728"/>
   </g>
   <g id="patch_74">
    <path d="M 590.546504 399.6 
L 601.591093 399.6 
L 601.591093 355.663104 
L 590.546504 355.663104 
z
" clip-path="url(#pa72fb77c40)" style="fill: #d62728"/>
   </g>
   <g id="patch_75">
    <path d="M 424.877673 399.6 
L 435.922262 399.6 
L 435.922262 367.736852 
L 424.877673 367.736852 
z
" clip-path="url(#pa72fb77c40)" style="fill: #9467bd"/>
   </g>
   <g id="patch_76">
    <path d="M 513.234383 399.6 
L 524.278972 399.6 
L 524.278972 358.920591 
L 513.234383 358.920591 
z
" clip-path="url(#pa72fb77c40)" style="fill: #9467bd"/>
   </g>
   <g id="patch_77">
    <path d="M 601.591093 399.6 
L 612.635682 399.6 
L 612.635682 345.008516 
L 601.591093 345.008516 
z
" clip-path="url(#pa72fb77c40)" style="fill: #9467bd"/>
   </g>
   <g id="matplotlib.axis_7">
    <g id="xtick_10">
     <g id="line2d_30">
      <g>
       <use xlink:href="#m113a2a2262" x="413.833084" y="399.6" style="stroke: #000000; stroke-width: 0.8"/>
      </g>
     </g>
     <g id="text_29">
      <!-- 0.1 -->
      <g transform="translate(405.083084 416.32125) scale(0.14 -0.14)">
       <use xlink:href="#TimesNewRomanPSMT-30"/>
       <use xlink:href="#TimesNewRomanPSMT-2e" x="50"/>
       <use xlink:href="#TimesNewRomanPSMT-31" x="75"/>
      </g>
     </g>
    </g>
    <g id="xtick_11">
     <g id="line2d_31">
      <g>
       <use xlink:href="#m113a2a2262" x="502.189794" y="399.6" style="stroke: #000000; stroke-width: 0.8"/>
      </g>
     </g>
     <g id="text_30">
      <!-- 0.5 -->
      <g transform="translate(493.439794 416.32125) scale(0.14 -0.14)">
       <use xlink:href="#TimesNewRomanPSMT-30"/>
       <use xlink:href="#TimesNewRomanPSMT-2e" x="50"/>
       <use xlink:href="#TimesNewRomanPSMT-35" x="75"/>
      </g>
     </g>
    </g>
    <g id="xtick_12">
     <g id="line2d_32">
      <g>
       <use xlink:href="#m113a2a2262" x="590.546504" y="399.6" style="stroke: #000000; stroke-width: 0.8"/>
      </g>
     </g>
     <g id="text_31">
      <!-- 1.0 -->
      <g transform="translate(581.796504 416.32125) scale(0.14 -0.14)">
       <use xlink:href="#TimesNewRomanPSMT-31"/>
       <use xlink:href="#TimesNewRomanPSMT-2e" x="50"/>
       <use xlink:href="#TimesNewRomanPSMT-30" x="75"/>
      </g>
     </g>
    </g>
    <g id="text_32">
     <!-- dirichlet alpha -->
     <g transform="translate(450.68625 434.425938) scale(0.16 -0.16)">
      <use xlink:href="#TimesNewRomanPSMT-64"/>
      <use xlink:href="#TimesNewRomanPSMT-69" x="50"/>
      <use xlink:href="#TimesNewRomanPSMT-72" x="77.783203"/>
      <use xlink:href="#TimesNewRomanPSMT-69" x="111.083984"/>
      <use xlink:href="#TimesNewRomanPSMT-63" x="138.867188"/>
      <use xlink:href="#TimesNewRomanPSMT-68" x="183.251953"/>
      <use xlink:href="#TimesNewRomanPSMT-6c" x="233.251953"/>
      <use xlink:href="#TimesNewRomanPSMT-65" x="261.035156"/>
      <use xlink:href="#TimesNewRomanPSMT-74" x="305.419922"/>
      <use xlink:href="#TimesNewRomanPSMT-20" x="333.203125"/>
      <use xlink:href="#TimesNewRomanPSMT-61" x="358.203125"/>
      <use xlink:href="#TimesNewRomanPSMT-6c" x="402.587891"/>
      <use xlink:href="#TimesNewRomanPSMT-70" x="430.371094"/>
      <use xlink:href="#TimesNewRomanPSMT-68" x="480.371094"/>
      <use xlink:href="#TimesNewRomanPSMT-61" x="530.371094"/>
     </g>
    </g>
   </g>
   <g id="matplotlib.axis_8">
    <g id="ytick_11">
     <g id="line2d_33">
      <path d="M 369.1025 399.6 
L 624.2325 399.6 
" clip-path="url(#pa72fb77c40)" style="fill: none; stroke-dasharray: 2.96,1.28; stroke-dashoffset: 0; stroke: #b0b0b0; stroke-opacity: 0.6; stroke-width: 0.8"/>
     </g>
     <g id="line2d_34">
      <g>
       <use xlink:href="#m28e2669895" x="369.1025" y="399.6" style="stroke: #000000; stroke-width: 0.8"/>
      </g>
     </g>
     <g id="text_33">
      <!-- 0 -->
      <g transform="translate(355.1025 404.460625) scale(0.14 -0.14)">
       <use xlink:href="#TimesNewRomanPSMT-30"/>
      </g>
     </g>
    </g>
    <g id="ytick_12">
     <g id="line2d_35">
      <path d="M 369.1025 363.546411 
L 624.2325 363.546411 
" clip-path="url(#pa72fb77c40)" style="fill: none; stroke-dasharray: 2.96,1.28; stroke-dashoffset: 0; stroke: #b0b0b0; stroke-opacity: 0.6; stroke-width: 0.8"/>
     </g>
     <g id="line2d_36">
      <g>
       <use xlink:href="#m28e2669895" x="369.1025" y="363.546411" style="stroke: #000000; stroke-width: 0.8"/>
      </g>
     </g>
     <g id="text_34">
      <!-- 200 -->
      <g transform="translate(341.1025 368.407036) scale(0.14 -0.14)">
       <use xlink:href="#TimesNewRomanPSMT-32"/>
       <use xlink:href="#TimesNewRomanPSMT-30" x="50"/>
       <use xlink:href="#TimesNewRomanPSMT-30" x="100"/>
      </g>
     </g>
    </g>
    <g id="ytick_13">
     <g id="line2d_37">
      <path d="M 369.1025 327.492822 
L 624.2325 327.492822 
" clip-path="url(#pa72fb77c40)" style="fill: none; stroke-dasharray: 2.96,1.28; stroke-dashoffset: 0; stroke: #b0b0b0; stroke-opacity: 0.6; stroke-width: 0.8"/>
     </g>
     <g id="line2d_38">
      <g>
       <use xlink:href="#m28e2669895" x="369.1025" y="327.492822" style="stroke: #000000; stroke-width: 0.8"/>
      </g>
     </g>
     <g id="text_35">
      <!-- 400 -->
      <g transform="translate(341.1025 332.353447) scale(0.14 -0.14)">
       <use xlink:href="#TimesNewRomanPSMT-34"/>
       <use xlink:href="#TimesNewRomanPSMT-30" x="50"/>
       <use xlink:href="#TimesNewRomanPSMT-30" x="100"/>
      </g>
     </g>
    </g>
    <g id="ytick_14">
     <g id="line2d_39">
      <path d="M 369.1025 291.439233 
L 624.2325 291.439233 
" clip-path="url(#pa72fb77c40)" style="fill: none; stroke-dasharray: 2.96,1.28; stroke-dashoffset: 0; stroke: #b0b0b0; stroke-opacity: 0.6; stroke-width: 0.8"/>
     </g>
     <g id="line2d_40">
      <g>
       <use xlink:href="#m28e2669895" x="369.1025" y="291.439233" style="stroke: #000000; stroke-width: 0.8"/>
      </g>
     </g>
     <g id="text_36">
      <!-- 600 -->
      <g transform="translate(341.1025 296.299858) scale(0.14 -0.14)">
       <use xlink:href="#TimesNewRomanPSMT-36"/>
       <use xlink:href="#TimesNewRomanPSMT-30" x="50"/>
       <use xlink:href="#TimesNewRomanPSMT-30" x="100"/>
      </g>
     </g>
    </g>
    <g id="text_37">
     <!-- Total Energy -->
     <g transform="translate(333.65 374.14375) rotate(-90) scale(0.16 -0.16)">
      <use xlink:href="#TimesNewRomanPSMT-54"/>
      <use xlink:href="#TimesNewRomanPSMT-6f" x="54.083984"/>
      <use xlink:href="#TimesNewRomanPSMT-74" x="104.083984"/>
      <use xlink:href="#TimesNewRomanPSMT-61" x="131.867188"/>
      <use xlink:href="#TimesNewRomanPSMT-6c" x="176.251953"/>
      <use xlink:href="#TimesNewRomanPSMT-20" x="204.035156"/>
      <use xlink:href="#TimesNewRomanPSMT-45" x="229.035156"/>
      <use xlink:href="#TimesNewRomanPSMT-6e" x="290.119141"/>
      <use xlink:href="#TimesNewRomanPSMT-65" x="340.119141"/>
      <use xlink:href="#TimesNewRomanPSMT-72" x="384.503906"/>
      <use xlink:href="#TimesNewRomanPSMT-67" x="416.054688"/>
      <use xlink:href="#TimesNewRomanPSMT-79" x="466.054688"/>
     </g>
    </g>
   </g>
   <g id="patch_78">
    <path d="M 369.1025 399.6 
L 369.1025 266.12 
" style="fill: none; stroke: #000000; stroke-width: 0.8; stroke-linejoin: miter; stroke-linecap: square"/>
   </g>
   <g id="patch_79">
    <path d="M 624.2325 399.6 
L 624.2325 266.12 
" style="fill: none; stroke: #000000; stroke-width: 0.8; stroke-linejoin: miter; stroke-linecap: square"/>
   </g>
   <g id="patch_80">
    <path d="M 369.1025 399.6 
L 624.2325 399.6 
" style="fill: none; stroke: #000000; stroke-width: 0.8; stroke-linejoin: miter; stroke-linecap: square"/>
   </g>
   <g id="patch_81">
    <path d="M 369.1025 266.12 
L 624.2325 266.12 
" style="fill: none; stroke: #000000; stroke-width: 0.8; stroke-linejoin: miter; stroke-linecap: square"/>
   </g>
   <g id="text_38">
    <!-- Fashion -->
    <g transform="translate(471.33125 260.12) scale(0.16 -0.16)">
     <use xlink:href="#TimesNewRomanPSMT-46"/>
     <use xlink:href="#TimesNewRomanPSMT-61" x="55.615234"/>
     <use xlink:href="#TimesNewRomanPSMT-73" x="100"/>
     <use xlink:href="#TimesNewRomanPSMT-68" x="138.916016"/>
     <use xlink:href="#TimesNewRomanPSMT-69" x="188.916016"/>
     <use xlink:href="#TimesNewRomanPSMT-6f" x="216.699219"/>
     <use xlink:href="#TimesNewRomanPSMT-6e" x="266.699219"/>
    </g>
   </g>
  </g>
  <g id="axes_5">
   <g id="patch_82">
    <path d="M 50.2325 605.52 
L 305.3625 605.52 
L 305.3625 472.04 
L 50.2325 472.04 
z
" style="fill: #ffffff"/>
   </g>
   <g id="patch_83">
    <path d="M 61.829318 605.52 
L 72.873907 605.52 
L 72.873907 548.102733 
L 61.829318 548.102733 
z
" clip-path="url(#p91172b5b46)" style="fill: #1f77b4"/>
   </g>
   <g id="patch_84">
    <path d="M 150.186028 605.52 
L 161.230617 605.52 
L 161.230617 546.855882 
L 150.186028 546.855882 
z
" clip-path="url(#p91172b5b46)" style="fill: #1f77b4"/>
   </g>
   <g id="patch_85">
    <path d="M 238.542738 605.52 
L 249.587327 605.52 
L 249.587327 543.285795 
L 238.542738 543.285795 
z
" clip-path="url(#p91172b5b46)" style="fill: #1f77b4"/>
   </g>
   <g id="patch_86">
    <path d="M 72.873907 605.52 
L 83.918496 605.52 
L 83.918496 478.39619 
L 72.873907 478.39619 
z
" clip-path="url(#p91172b5b46)" style="fill: #ff7f0e"/>
   </g>
   <g id="patch_87">
    <path d="M 161.230617 605.52 
L 172.275206 605.52 
L 172.275206 519.970043 
L 161.230617 519.970043 
z
" clip-path="url(#p91172b5b46)" style="fill: #ff7f0e"/>
   </g>
   <g id="patch_88">
    <path d="M 249.587327 605.52 
L 260.631916 605.52 
L 260.631916 528.363593 
L 249.587327 528.363593 
z
" clip-path="url(#p91172b5b46)" style="fill: #ff7f0e"/>
   </g>
   <g id="patch_89">
    <path d="M 83.918496 605.52 
L 94.963084 605.52 
L 94.963084 541.91354 
L 83.918496 541.91354 
z
" clip-path="url(#p91172b5b46)" style="fill: #2ca02c"/>
   </g>
   <g id="patch_90">
    <path d="M 172.275206 605.52 
L 183.319794 605.52 
L 183.319794 541.904272 
L 172.275206 541.904272 
z
" clip-path="url(#p91172b5b46)" style="fill: #2ca02c"/>
   </g>
   <g id="patch_91">
    <path d="M 260.631916 605.52 
L 271.676504 605.52 
L 271.676504 541.914447 
L 260.631916 541.914447 
z
" clip-path="url(#p91172b5b46)" style="fill: #2ca02c"/>
   </g>
   <g id="patch_92">
    <path d="M 94.963084 605.52 
L 106.007673 605.52 
L 106.007673 527.970047 
L 94.963084 527.970047 
z
" clip-path="url(#p91172b5b46)" style="fill: #d62728"/>
   </g>
   <g id="patch_93">
    <path d="M 183.319794 605.52 
L 194.364383 605.52 
L 194.364383 484.012924 
L 183.319794 484.012924 
z
" clip-path="url(#p91172b5b46)" style="fill: #d62728"/>
   </g>
   <g id="patch_94">
    <path d="M 271.676504 605.52 
L 282.721093 605.52 
L 282.721093 538.259176 
L 271.676504 538.259176 
z
" clip-path="url(#p91172b5b46)" style="fill: #d62728"/>
   </g>
   <g id="patch_95">
    <path d="M 106.007673 605.52 
L 117.052262 605.52 
L 117.052262 538.312195 
L 106.007673 538.312195 
z
" clip-path="url(#p91172b5b46)" style="fill: #9467bd"/>
   </g>
   <g id="patch_96">
    <path d="M 194.364383 605.52 
L 205.408972 605.52 
L 205.408972 527.287977 
L 194.364383 527.287977 
z
" clip-path="url(#p91172b5b46)" style="fill: #9467bd"/>
   </g>
   <g id="patch_97">
    <path d="M 282.721093 605.52 
L 293.765682 605.52 
L 293.765682 533.916414 
L 282.721093 533.916414 
z
" clip-path="url(#p91172b5b46)" style="fill: #9467bd"/>
   </g>
   <g id="matplotlib.axis_9">
    <g id="xtick_13">
     <g id="line2d_41">
      <g>
       <use xlink:href="#m113a2a2262" x="94.963084" y="605.52" style="stroke: #000000; stroke-width: 0.8"/>
      </g>
     </g>
     <g id="text_39">
      <!-- 0.1 -->
      <g transform="translate(86.213084 622.24125) scale(0.14 -0.14)">
       <use xlink:href="#TimesNewRomanPSMT-30"/>
       <use xlink:href="#TimesNewRomanPSMT-2e" x="50"/>
       <use xlink:href="#TimesNewRomanPSMT-31" x="75"/>
      </g>
     </g>
    </g>
    <g id="xtick_14">
     <g id="line2d_42">
      <g>
       <use xlink:href="#m113a2a2262" x="183.319794" y="605.52" style="stroke: #000000; stroke-width: 0.8"/>
      </g>
     </g>
     <g id="text_40">
      <!-- 0.5 -->
      <g transform="translate(174.569794 622.24125) scale(0.14 -0.14)">
       <use xlink:href="#TimesNewRomanPSMT-30"/>
       <use xlink:href="#TimesNewRomanPSMT-2e" x="50"/>
       <use xlink:href="#TimesNewRomanPSMT-35" x="75"/>
      </g>
     </g>
    </g>
    <g id="xtick_15">
     <g id="line2d_43">
      <g>
       <use xlink:href="#m113a2a2262" x="271.676504" y="605.52" style="stroke: #000000; stroke-width: 0.8"/>
      </g>
     </g>
     <g id="text_41">
      <!-- 1.0 -->
      <g transform="translate(262.926504 622.24125) scale(0.14 -0.14)">
       <use xlink:href="#TimesNewRomanPSMT-31"/>
       <use xlink:href="#TimesNewRomanPSMT-2e" x="50"/>
       <use xlink:href="#TimesNewRomanPSMT-30" x="75"/>
      </g>
     </g>
    </g>
    <g id="text_42">
     <!-- dirichlet alpha -->
     <g transform="translate(131.81625 640.345937) scale(0.16 -0.16)">
      <use xlink:href="#TimesNewRomanPSMT-64"/>
      <use xlink:href="#TimesNewRomanPSMT-69" x="50"/>
      <use xlink:href="#TimesNewRomanPSMT-72" x="77.783203"/>
      <use xlink:href="#TimesNewRomanPSMT-69" x="111.083984"/>
      <use xlink:href="#TimesNewRomanPSMT-63" x="138.867188"/>
      <use xlink:href="#TimesNewRomanPSMT-68" x="183.251953"/>
      <use xlink:href="#TimesNewRomanPSMT-6c" x="233.251953"/>
      <use xlink:href="#TimesNewRomanPSMT-65" x="261.035156"/>
      <use xlink:href="#TimesNewRomanPSMT-74" x="305.419922"/>
      <use xlink:href="#TimesNewRomanPSMT-20" x="333.203125"/>
      <use xlink:href="#TimesNewRomanPSMT-61" x="358.203125"/>
      <use xlink:href="#TimesNewRomanPSMT-6c" x="402.587891"/>
      <use xlink:href="#TimesNewRomanPSMT-70" x="430.371094"/>
      <use xlink:href="#TimesNewRomanPSMT-68" x="480.371094"/>
      <use xlink:href="#TimesNewRomanPSMT-61" x="530.371094"/>
     </g>
    </g>
   </g>
   <g id="matplotlib.axis_10">
    <g id="ytick_15">
     <g id="line2d_44">
      <path d="M 50.2325 605.52 
L 305.3625 605.52 
" clip-path="url(#p91172b5b46)" style="fill: none; stroke-dasharray: 2.96,1.28; stroke-dashoffset: 0; stroke: #b0b0b0; stroke-opacity: 0.6; stroke-width: 0.8"/>
     </g>
     <g id="line2d_45">
      <g>
       <use xlink:href="#m28e2669895" x="50.2325" y="605.52" style="stroke: #000000; stroke-width: 0.8"/>
      </g>
     </g>
     <g id="text_43">
      <!-- 0.0 -->
      <g transform="translate(25.7325 610.380625) scale(0.14 -0.14)">
       <use xlink:href="#TimesNewRomanPSMT-30"/>
       <use xlink:href="#TimesNewRomanPSMT-2e" x="50"/>
       <use xlink:href="#TimesNewRomanPSMT-30" x="75"/>
      </g>
     </g>
    </g>
    <g id="ytick_16">
     <g id="line2d_46">
      <path d="M 50.2325 565.746412 
L 305.3625 565.746412 
" clip-path="url(#p91172b5b46)" style="fill: none; stroke-dasharray: 2.96,1.28; stroke-dashoffset: 0; stroke: #b0b0b0; stroke-opacity: 0.6; stroke-width: 0.8"/>
     </g>
     <g id="line2d_47">
      <g>
       <use xlink:href="#m28e2669895" x="50.2325" y="565.746412" style="stroke: #000000; stroke-width: 0.8"/>
      </g>
     </g>
     <g id="text_44">
      <!-- 2.5 -->
      <g transform="translate(25.7325 570.607037) scale(0.14 -0.14)">
       <use xlink:href="#TimesNewRomanPSMT-32"/>
       <use xlink:href="#TimesNewRomanPSMT-2e" x="50"/>
       <use xlink:href="#TimesNewRomanPSMT-35" x="75"/>
      </g>
     </g>
    </g>
    <g id="ytick_17">
     <g id="line2d_48">
      <path d="M 50.2325 525.972824 
L 305.3625 525.972824 
" clip-path="url(#p91172b5b46)" style="fill: none; stroke-dasharray: 2.96,1.28; stroke-dashoffset: 0; stroke: #b0b0b0; stroke-opacity: 0.6; stroke-width: 0.8"/>
     </g>
     <g id="line2d_49">
      <g>
       <use xlink:href="#m28e2669895" x="50.2325" y="525.972824" style="stroke: #000000; stroke-width: 0.8"/>
      </g>
     </g>
     <g id="text_45">
      <!-- 5.0 -->
      <g transform="translate(25.7325 530.833449) scale(0.14 -0.14)">
       <use xlink:href="#TimesNewRomanPSMT-35"/>
       <use xlink:href="#TimesNewRomanPSMT-2e" x="50"/>
       <use xlink:href="#TimesNewRomanPSMT-30" x="75"/>
      </g>
     </g>
    </g>
    <g id="ytick_18">
     <g id="line2d_50">
      <path d="M 50.2325 486.199236 
L 305.3625 486.199236 
" clip-path="url(#p91172b5b46)" style="fill: none; stroke-dasharray: 2.96,1.28; stroke-dashoffset: 0; stroke: #b0b0b0; stroke-opacity: 0.6; stroke-width: 0.8"/>
     </g>
     <g id="line2d_51">
      <g>
       <use xlink:href="#m28e2669895" x="50.2325" y="486.199236" style="stroke: #000000; stroke-width: 0.8"/>
      </g>
     </g>
     <g id="text_46">
      <!-- 7.5 -->
      <g transform="translate(25.7325 491.059861) scale(0.14 -0.14)">
       <defs>
        <path id="TimesNewRomanPSMT-37" d="M 644 4238 
L 2916 4238 
L 2916 4119 
L 1503 -88 
L 1153 -88 
L 2419 3728 
L 1253 3728 
Q 900 3728 750 3644 
Q 488 3500 328 3200 
L 238 3234 
L 644 4238 
z
" transform="scale(0.015625)"/>
       </defs>
       <use xlink:href="#TimesNewRomanPSMT-37"/>
       <use xlink:href="#TimesNewRomanPSMT-2e" x="50"/>
       <use xlink:href="#TimesNewRomanPSMT-35" x="75"/>
      </g>
     </g>
    </g>
    <g id="text_47">
     <!-- Total Time -->
     <g transform="translate(18.31 573.565) rotate(-90) scale(0.16 -0.16)">
      <use xlink:href="#TimesNewRomanPSMT-54"/>
      <use xlink:href="#TimesNewRomanPSMT-6f" x="54.083984"/>
      <use xlink:href="#TimesNewRomanPSMT-74" x="104.083984"/>
      <use xlink:href="#TimesNewRomanPSMT-61" x="131.867188"/>
      <use xlink:href="#TimesNewRomanPSMT-6c" x="176.251953"/>
      <use xlink:href="#TimesNewRomanPSMT-20" x="204.035156"/>
      <use xlink:href="#TimesNewRomanPSMT-54" x="227.285156"/>
      <use xlink:href="#TimesNewRomanPSMT-69" x="284.869141"/>
      <use xlink:href="#TimesNewRomanPSMT-6d" x="312.652344"/>
      <use xlink:href="#TimesNewRomanPSMT-65" x="390.435547"/>
     </g>
    </g>
   </g>
   <g id="patch_98">
    <path d="M 50.2325 605.52 
L 50.2325 472.04 
" style="fill: none; stroke: #000000; stroke-width: 0.8; stroke-linejoin: miter; stroke-linecap: square"/>
   </g>
   <g id="patch_99">
    <path d="M 305.3625 605.52 
L 305.3625 472.04 
" style="fill: none; stroke: #000000; stroke-width: 0.8; stroke-linejoin: miter; stroke-linecap: square"/>
   </g>
   <g id="patch_100">
    <path d="M 50.2325 605.52 
L 305.3625 605.52 
" style="fill: none; stroke: #000000; stroke-width: 0.8; stroke-linejoin: miter; stroke-linecap: square"/>
   </g>
   <g id="patch_101">
    <path d="M 50.2325 472.04 
L 305.3625 472.04 
" style="fill: none; stroke: #000000; stroke-width: 0.8; stroke-linejoin: miter; stroke-linecap: square"/>
   </g>
   <g id="text_48">
    <!-- MNIST -->
    <g transform="translate(152.9075 466.04) scale(0.16 -0.16)">
     <defs>
      <path id="TimesNewRomanPSMT-4d" d="M 2619 0 
L 981 3566 
L 981 734 
Q 981 344 1066 247 
Q 1181 116 1431 116 
L 1581 116 
L 1581 0 
L 106 0 
L 106 116 
L 256 116 
Q 525 116 638 278 
Q 706 378 706 734 
L 706 3503 
Q 706 3784 644 3909 
Q 600 4000 483 4061 
Q 366 4122 106 4122 
L 106 4238 
L 1306 4238 
L 2844 922 
L 4356 4238 
L 5556 4238 
L 5556 4122 
L 5409 4122 
Q 5138 4122 5025 3959 
Q 4956 3859 4956 3503 
L 4956 734 
Q 4956 344 5044 247 
Q 5159 116 5409 116 
L 5556 116 
L 5556 0 
L 3756 0 
L 3756 116 
L 3906 116 
Q 4178 116 4288 278 
Q 4356 378 4356 734 
L 4356 3566 
L 2722 0 
L 2619 0 
z
" transform="scale(0.015625)"/>
      <path id="TimesNewRomanPSMT-4e" d="M -84 4238 
L 1066 4238 
L 3656 1059 
L 3656 3503 
Q 3656 3894 3569 3991 
Q 3453 4122 3203 4122 
L 3056 4122 
L 3056 4238 
L 4531 4238 
L 4531 4122 
L 4381 4122 
Q 4113 4122 4000 3959 
Q 3931 3859 3931 3503 
L 3931 -69 
L 3819 -69 
L 1025 3344 
L 1025 734 
Q 1025 344 1109 247 
Q 1228 116 1475 116 
L 1625 116 
L 1625 0 
L 150 0 
L 150 116 
L 297 116 
Q 569 116 681 278 
Q 750 378 750 734 
L 750 3681 
Q 566 3897 470 3965 
Q 375 4034 191 4094 
Q 100 4122 -84 4122 
L -84 4238 
z
" transform="scale(0.015625)"/>
      <path id="TimesNewRomanPSMT-53" d="M 2934 4334 
L 2934 2869 
L 2819 2869 
Q 2763 3291 2617 3541 
Q 2472 3791 2203 3937 
Q 1934 4084 1647 4084 
Q 1322 4084 1109 3886 
Q 897 3688 897 3434 
Q 897 3241 1031 3081 
Q 1225 2847 1953 2456 
Q 2547 2138 2764 1967 
Q 2981 1797 3098 1565 
Q 3216 1334 3216 1081 
Q 3216 600 2842 251 
Q 2469 -97 1881 -97 
Q 1697 -97 1534 -69 
Q 1438 -53 1133 45 
Q 828 144 747 144 
Q 669 144 623 97 
Q 578 50 556 -97 
L 441 -97 
L 441 1356 
L 556 1356 
Q 638 900 775 673 
Q 913 447 1195 297 
Q 1478 147 1816 147 
Q 2206 147 2432 353 
Q 2659 559 2659 841 
Q 2659 997 2573 1156 
Q 2488 1316 2306 1453 
Q 2184 1547 1640 1851 
Q 1097 2156 867 2337 
Q 638 2519 519 2737 
Q 400 2956 400 3219 
Q 400 3675 750 4004 
Q 1100 4334 1641 4334 
Q 1978 4334 2356 4169 
Q 2531 4091 2603 4091 
Q 2684 4091 2736 4139 
Q 2788 4188 2819 4334 
L 2934 4334 
z
" transform="scale(0.015625)"/>
     </defs>
     <use xlink:href="#TimesNewRomanPSMT-4d"/>
     <use xlink:href="#TimesNewRomanPSMT-4e" x="88.916016"/>
     <use xlink:href="#TimesNewRomanPSMT-49" x="161.132812"/>
     <use xlink:href="#TimesNewRomanPSMT-53" x="194.433594"/>
     <use xlink:href="#TimesNewRomanPSMT-54" x="250.048828"/>
    </g>
   </g>
  </g>
  <g id="axes_6">
   <g id="patch_102">
    <path d="M 369.1025 605.52 
L 624.2325 605.52 
L 624.2325 472.04 
L 369.1025 472.04 
z
" style="fill: #ffffff"/>
   </g>
   <g id="patch_103">
    <path d="M 380.699318 605.52 
L 391.743907 605.52 
L 391.743907 594.392266 
L 380.699318 594.392266 
z
" clip-path="url(#p21bd34e3a9)" style="fill: #1f77b4"/>
   </g>
   <g id="patch_104">
    <path d="M 469.056028 605.52 
L 480.100617 605.52 
L 480.100617 592.105387 
L 469.056028 592.105387 
z
" clip-path="url(#p21bd34e3a9)" style="fill: #1f77b4"/>
   </g>
   <g id="patch_105">
    <path d="M 557.412738 605.52 
L 568.457327 605.52 
L 568.457327 587.337306 
L 557.412738 587.337306 
z
" clip-path="url(#p21bd34e3a9)" style="fill: #1f77b4"/>
   </g>
   <g id="patch_106">
    <path d="M 391.743907 605.52 
L 402.788496 605.52 
L 402.788496 586.732266 
L 391.743907 586.732266 
z
" clip-path="url(#p21bd34e3a9)" style="fill: #ff7f0e"/>
   </g>
   <g id="patch_107">
    <path d="M 480.100617 605.52 
L 491.145206 605.52 
L 491.145206 586.550641 
L 480.100617 586.550641 
z
" clip-path="url(#p21bd34e3a9)" style="fill: #ff7f0e"/>
   </g>
   <g id="patch_108">
    <path d="M 568.457327 605.52 
L 579.501916 605.52 
L 579.501916 586.921632 
L 568.457327 586.921632 
z
" clip-path="url(#p21bd34e3a9)" style="fill: #ff7f0e"/>
   </g>
   <g id="patch_109">
    <path d="M 402.788496 605.52 
L 413.833084 605.52 
L 413.833084 478.39619 
L 402.788496 478.39619 
z
" clip-path="url(#p21bd34e3a9)" style="fill: #2ca02c"/>
   </g>
   <g id="patch_110">
    <path d="M 491.145206 605.52 
L 502.189794 605.52 
L 502.189794 524.878041 
L 491.145206 524.878041 
z
" clip-path="url(#p21bd34e3a9)" style="fill: #2ca02c"/>
   </g>
   <g id="patch_111">
    <path d="M 579.501916 605.52 
L 590.546504 605.52 
L 590.546504 536.82826 
L 579.501916 536.82826 
z
" clip-path="url(#p21bd34e3a9)" style="fill: #2ca02c"/>
   </g>
   <g id="patch_112">
    <path d="M 413.833084 605.52 
L 424.877673 605.52 
L 424.877673 589.246243 
L 413.833084 589.246243 
z
" clip-path="url(#p21bd34e3a9)" style="fill: #d62728"/>
   </g>
   <g id="patch_113">
    <path d="M 502.189794 605.52 
L 513.234383 605.52 
L 513.234383 579.123135 
L 502.189794 579.123135 
z
" clip-path="url(#p21bd34e3a9)" style="fill: #d62728"/>
   </g>
   <g id="patch_114">
    <path d="M 590.546504 605.52 
L 601.591093 605.52 
L 601.591093 588.420012 
L 590.546504 588.420012 
z
" clip-path="url(#p21bd34e3a9)" style="fill: #d62728"/>
   </g>
   <g id="patch_115">
    <path d="M 424.877673 605.52 
L 435.922262 605.52 
L 435.922262 591.995742 
L 424.877673 591.995742 
z
" clip-path="url(#p21bd34e3a9)" style="fill: #9467bd"/>
   </g>
   <g id="patch_116">
    <path d="M 513.234383 605.52 
L 524.278972 605.52 
L 524.278972 588.929705 
L 513.234383 588.929705 
z
" clip-path="url(#p21bd34e3a9)" style="fill: #9467bd"/>
   </g>
   <g id="patch_117">
    <path d="M 601.591093 605.52 
L 612.635682 605.52 
L 612.635682 586.182428 
L 601.591093 586.182428 
z
" clip-path="url(#p21bd34e3a9)" style="fill: #9467bd"/>
   </g>
   <g id="matplotlib.axis_11">
    <g id="xtick_16">
     <g id="line2d_52">
      <g>
       <use xlink:href="#m113a2a2262" x="413.833084" y="605.52" style="stroke: #000000; stroke-width: 0.8"/>
      </g>
     </g>
     <g id="text_49">
      <!-- 0.1 -->
      <g transform="translate(405.083084 622.24125) scale(0.14 -0.14)">
       <use xlink:href="#TimesNewRomanPSMT-30"/>
       <use xlink:href="#TimesNewRomanPSMT-2e" x="50"/>
       <use xlink:href="#TimesNewRomanPSMT-31" x="75"/>
      </g>
     </g>
    </g>
    <g id="xtick_17">
     <g id="line2d_53">
      <g>
       <use xlink:href="#m113a2a2262" x="502.189794" y="605.52" style="stroke: #000000; stroke-width: 0.8"/>
      </g>
     </g>
     <g id="text_50">
      <!-- 0.5 -->
      <g transform="translate(493.439794 622.24125) scale(0.14 -0.14)">
       <use xlink:href="#TimesNewRomanPSMT-30"/>
       <use xlink:href="#TimesNewRomanPSMT-2e" x="50"/>
       <use xlink:href="#TimesNewRomanPSMT-35" x="75"/>
      </g>
     </g>
    </g>
    <g id="xtick_18">
     <g id="line2d_54">
      <g>
       <use xlink:href="#m113a2a2262" x="590.546504" y="605.52" style="stroke: #000000; stroke-width: 0.8"/>
      </g>
     </g>
     <g id="text_51">
      <!-- 1.0 -->
      <g transform="translate(581.796504 622.24125) scale(0.14 -0.14)">
       <use xlink:href="#TimesNewRomanPSMT-31"/>
       <use xlink:href="#TimesNewRomanPSMT-2e" x="50"/>
       <use xlink:href="#TimesNewRomanPSMT-30" x="75"/>
      </g>
     </g>
    </g>
    <g id="text_52">
     <!-- dirichlet alpha -->
     <g transform="translate(450.68625 640.345937) scale(0.16 -0.16)">
      <use xlink:href="#TimesNewRomanPSMT-64"/>
      <use xlink:href="#TimesNewRomanPSMT-69" x="50"/>
      <use xlink:href="#TimesNewRomanPSMT-72" x="77.783203"/>
      <use xlink:href="#TimesNewRomanPSMT-69" x="111.083984"/>
      <use xlink:href="#TimesNewRomanPSMT-63" x="138.867188"/>
      <use xlink:href="#TimesNewRomanPSMT-68" x="183.251953"/>
      <use xlink:href="#TimesNewRomanPSMT-6c" x="233.251953"/>
      <use xlink:href="#TimesNewRomanPSMT-65" x="261.035156"/>
      <use xlink:href="#TimesNewRomanPSMT-74" x="305.419922"/>
      <use xlink:href="#TimesNewRomanPSMT-20" x="333.203125"/>
      <use xlink:href="#TimesNewRomanPSMT-61" x="358.203125"/>
      <use xlink:href="#TimesNewRomanPSMT-6c" x="402.587891"/>
      <use xlink:href="#TimesNewRomanPSMT-70" x="430.371094"/>
      <use xlink:href="#TimesNewRomanPSMT-68" x="480.371094"/>
      <use xlink:href="#TimesNewRomanPSMT-61" x="530.371094"/>
     </g>
    </g>
   </g>
   <g id="matplotlib.axis_12">
    <g id="ytick_19">
     <g id="line2d_55">
      <path d="M 369.1025 605.52 
L 624.2325 605.52 
" clip-path="url(#p21bd34e3a9)" style="fill: none; stroke-dasharray: 2.96,1.28; stroke-dashoffset: 0; stroke: #b0b0b0; stroke-opacity: 0.6; stroke-width: 0.8"/>
     </g>
     <g id="line2d_56">
      <g>
       <use xlink:href="#m28e2669895" x="369.1025" y="605.52" style="stroke: #000000; stroke-width: 0.8"/>
      </g>
     </g>
     <g id="text_53">
      <!-- 0 -->
      <g transform="translate(355.1025 610.380625) scale(0.14 -0.14)">
       <use xlink:href="#TimesNewRomanPSMT-30"/>
      </g>
     </g>
    </g>
    <g id="ytick_20">
     <g id="line2d_57">
      <path d="M 369.1025 550.142599 
L 624.2325 550.142599 
" clip-path="url(#p21bd34e3a9)" style="fill: none; stroke-dasharray: 2.96,1.28; stroke-dashoffset: 0; stroke: #b0b0b0; stroke-opacity: 0.6; stroke-width: 0.8"/>
     </g>
     <g id="line2d_58">
      <g>
       <use xlink:href="#m28e2669895" x="369.1025" y="550.142599" style="stroke: #000000; stroke-width: 0.8"/>
      </g>
     </g>
     <g id="text_54">
      <!-- 100 -->
      <g transform="translate(341.1025 555.003224) scale(0.14 -0.14)">
       <use xlink:href="#TimesNewRomanPSMT-31"/>
       <use xlink:href="#TimesNewRomanPSMT-30" x="50"/>
       <use xlink:href="#TimesNewRomanPSMT-30" x="100"/>
      </g>
     </g>
    </g>
    <g id="ytick_21">
     <g id="line2d_59">
      <path d="M 369.1025 494.765198 
L 624.2325 494.765198 
" clip-path="url(#p21bd34e3a9)" style="fill: none; stroke-dasharray: 2.96,1.28; stroke-dashoffset: 0; stroke: #b0b0b0; stroke-opacity: 0.6; stroke-width: 0.8"/>
     </g>
     <g id="line2d_60">
      <g>
       <use xlink:href="#m28e2669895" x="369.1025" y="494.765198" style="stroke: #000000; stroke-width: 0.8"/>
      </g>
     </g>
     <g id="text_55">
      <!-- 200 -->
      <g transform="translate(341.1025 499.625823) scale(0.14 -0.14)">
       <use xlink:href="#TimesNewRomanPSMT-32"/>
       <use xlink:href="#TimesNewRomanPSMT-30" x="50"/>
       <use xlink:href="#TimesNewRomanPSMT-30" x="100"/>
      </g>
     </g>
    </g>
    <g id="text_56">
     <!-- Total Energy -->
     <g transform="translate(333.65 580.06375) rotate(-90) scale(0.16 -0.16)">
      <use xlink:href="#TimesNewRomanPSMT-54"/>
      <use xlink:href="#TimesNewRomanPSMT-6f" x="54.083984"/>
      <use xlink:href="#TimesNewRomanPSMT-74" x="104.083984"/>
      <use xlink:href="#TimesNewRomanPSMT-61" x="131.867188"/>
      <use xlink:href="#TimesNewRomanPSMT-6c" x="176.251953"/>
      <use xlink:href="#TimesNewRomanPSMT-20" x="204.035156"/>
      <use xlink:href="#TimesNewRomanPSMT-45" x="229.035156"/>
      <use xlink:href="#TimesNewRomanPSMT-6e" x="290.119141"/>
      <use xlink:href="#TimesNewRomanPSMT-65" x="340.119141"/>
      <use xlink:href="#TimesNewRomanPSMT-72" x="384.503906"/>
      <use xlink:href="#TimesNewRomanPSMT-67" x="416.054688"/>
      <use xlink:href="#TimesNewRomanPSMT-79" x="466.054688"/>
     </g>
    </g>
   </g>
   <g id="patch_118">
    <path d="M 369.1025 605.52 
L 369.1025 472.04 
" style="fill: none; stroke: #000000; stroke-width: 0.8; stroke-linejoin: miter; stroke-linecap: square"/>
   </g>
   <g id="patch_119">
    <path d="M 624.2325 605.52 
L 624.2325 472.04 
" style="fill: none; stroke: #000000; stroke-width: 0.8; stroke-linejoin: miter; stroke-linecap: square"/>
   </g>
   <g id="patch_120">
    <path d="M 369.1025 605.52 
L 624.2325 605.52 
" style="fill: none; stroke: #000000; stroke-width: 0.8; stroke-linejoin: miter; stroke-linecap: square"/>
   </g>
   <g id="patch_121">
    <path d="M 369.1025 472.04 
L 624.2325 472.04 
" style="fill: none; stroke: #000000; stroke-width: 0.8; stroke-linejoin: miter; stroke-linecap: square"/>
   </g>
   <g id="text_57">
    <!-- MNIST -->
    <g transform="translate(471.7775 466.04) scale(0.16 -0.16)">
     <use xlink:href="#TimesNewRomanPSMT-4d"/>
     <use xlink:href="#TimesNewRomanPSMT-4e" x="88.916016"/>
     <use xlink:href="#TimesNewRomanPSMT-49" x="161.132812"/>
     <use xlink:href="#TimesNewRomanPSMT-53" x="194.433594"/>
     <use xlink:href="#TimesNewRomanPSMT-54" x="250.048828"/>
    </g>
   </g>
  </g>
  <g id="legend_1">
   <g id="patch_122">
    <path d="M 46.499844 31.220937 
L 588.525156 31.220937 
Q 591.325156 31.220937 591.325156 28.420938 
L 591.325156 10 
Q 591.325156 7.2 588.525156 7.2 
L 46.499844 7.2 
Q 43.699844 7.2 43.699844 10 
L 43.699844 28.420938 
Q 43.699844 31.220937 46.499844 31.220937 
z
" style="fill: #ffffff; opacity: 0.8; stroke: #cccccc; stroke-linejoin: miter"/>
   </g>
   <g id="patch_123">
    <path d="M 49.299844 22.6 
L 77.299844 22.6 
L 77.299844 12.8 
L 49.299844 12.8 
z
" style="fill: #1f77b4"/>
   </g>
   <g id="text_58">
    <!-- FedHPPO -->
    <g transform="translate(88.499844 22.6) scale(0.14 -0.14)">
     <defs>
      <path id="TimesNewRomanPSMT-48" d="M 1316 2272 
L 3284 2272 
L 3284 3484 
Q 3284 3809 3244 3913 
Q 3213 3991 3113 4047 
Q 2978 4122 2828 4122 
L 2678 4122 
L 2678 4238 
L 4491 4238 
L 4491 4122 
L 4341 4122 
Q 4191 4122 4056 4050 
Q 3956 4000 3920 3898 
Q 3884 3797 3884 3484 
L 3884 750 
Q 3884 428 3925 325 
Q 3956 247 4053 191 
Q 4191 116 4341 116 
L 4491 116 
L 4491 0 
L 2678 0 
L 2678 116 
L 2828 116 
Q 3088 116 3206 269 
Q 3284 369 3284 750 
L 3284 2041 
L 1316 2041 
L 1316 750 
Q 1316 428 1356 325 
Q 1388 247 1488 191 
Q 1622 116 1772 116 
L 1925 116 
L 1925 0 
L 109 0 
L 109 116 
L 259 116 
Q 522 116 641 269 
Q 716 369 716 750 
L 716 3484 
Q 716 3809 675 3913 
Q 644 3991 547 4047 
Q 409 4122 259 4122 
L 109 4122 
L 109 4238 
L 1925 4238 
L 1925 4122 
L 1772 4122 
Q 1622 4122 1488 4050 
Q 1391 4000 1353 3898 
Q 1316 3797 1316 3484 
L 1316 2272 
z
" transform="scale(0.015625)"/>
      <path id="TimesNewRomanPSMT-50" d="M 1313 1984 
L 1313 750 
Q 1313 350 1400 253 
Q 1519 116 1759 116 
L 1922 116 
L 1922 0 
L 106 0 
L 106 116 
L 266 116 
Q 534 116 650 291 
Q 713 388 713 750 
L 713 3488 
Q 713 3888 628 3984 
Q 506 4122 266 4122 
L 106 4122 
L 106 4238 
L 1659 4238 
Q 2228 4238 2556 4120 
Q 2884 4003 3109 3725 
Q 3334 3447 3334 3066 
Q 3334 2547 2992 2222 
Q 2650 1897 2025 1897 
Q 1872 1897 1694 1919 
Q 1516 1941 1313 1984 
z
M 1313 2163 
Q 1478 2131 1606 2115 
Q 1734 2100 1825 2100 
Q 2150 2100 2386 2351 
Q 2622 2603 2622 3003 
Q 2622 3278 2509 3514 
Q 2397 3750 2190 3867 
Q 1984 3984 1722 3984 
Q 1563 3984 1313 3925 
L 1313 2163 
z
" transform="scale(0.015625)"/>
      <path id="TimesNewRomanPSMT-4f" d="M 2341 4334 
Q 3166 4334 3770 3707 
Q 4375 3081 4375 2144 
Q 4375 1178 3765 540 
Q 3156 -97 2291 -97 
Q 1416 -97 820 525 
Q 225 1147 225 2134 
Q 225 3144 913 3781 
Q 1509 4334 2341 4334 
z
M 2281 4106 
Q 1713 4106 1369 3684 
Q 941 3159 941 2147 
Q 941 1109 1384 550 
Q 1725 125 2284 125 
Q 2881 125 3270 590 
Q 3659 1056 3659 2059 
Q 3659 3147 3231 3681 
Q 2888 4106 2281 4106 
z
" transform="scale(0.015625)"/>
     </defs>
     <use xlink:href="#TimesNewRomanPSMT-46"/>
     <use xlink:href="#TimesNewRomanPSMT-65" x="55.615234"/>
     <use xlink:href="#TimesNewRomanPSMT-64" x="100"/>
     <use xlink:href="#TimesNewRomanPSMT-48" x="150"/>
     <use xlink:href="#TimesNewRomanPSMT-50" x="222.216797"/>
     <use xlink:href="#TimesNewRomanPSMT-50" x="277.832031"/>
     <use xlink:href="#TimesNewRomanPSMT-4f" x="333.447266"/>
    </g>
   </g>
   <g id="patch_124">
    <path d="M 173.291719 22.6 
L 201.291719 22.6 
L 201.291719 12.8 
L 173.291719 12.8 
z
" style="fill: #ff7f0e"/>
   </g>
   <g id="text_59">
    <!-- FedAvg -->
    <g transform="translate(212.491719 22.6) scale(0.14 -0.14)">
     <defs>
      <path id="TimesNewRomanPSMT-76" d="M 53 2863 
L 1400 2863 
L 1400 2747 
L 1313 2747 
Q 1191 2747 1127 2687 
Q 1063 2628 1063 2528 
Q 1063 2419 1128 2269 
L 1794 688 
L 2463 2328 
Q 2534 2503 2534 2594 
Q 2534 2638 2509 2666 
Q 2475 2713 2422 2730 
Q 2369 2747 2206 2747 
L 2206 2863 
L 3141 2863 
L 3141 2747 
Q 2978 2734 2916 2681 
Q 2806 2588 2719 2369 
L 1703 -88 
L 1575 -88 
L 553 2328 
Q 484 2497 421 2570 
Q 359 2644 263 2694 
Q 209 2722 53 2747 
L 53 2863 
z
" transform="scale(0.015625)"/>
     </defs>
     <use xlink:href="#TimesNewRomanPSMT-46"/>
     <use xlink:href="#TimesNewRomanPSMT-65" x="55.615234"/>
     <use xlink:href="#TimesNewRomanPSMT-64" x="100"/>
     <use xlink:href="#TimesNewRomanPSMT-41" x="150"/>
     <use xlink:href="#TimesNewRomanPSMT-76" x="214.841797"/>
     <use xlink:href="#TimesNewRomanPSMT-67" x="264.841797"/>
    </g>
   </g>
   <g id="patch_125">
    <path d="M 284.569844 22.6 
L 312.569844 22.6 
L 312.569844 12.8 
L 284.569844 12.8 
z
" style="fill: #2ca02c"/>
   </g>
   <g id="text_60">
    <!-- FedCS -->
    <g transform="translate(323.769844 22.6) scale(0.14 -0.14)">
     <use xlink:href="#TimesNewRomanPSMT-46"/>
     <use xlink:href="#TimesNewRomanPSMT-65" x="55.615234"/>
     <use xlink:href="#TimesNewRomanPSMT-64" x="100"/>
     <use xlink:href="#TimesNewRomanPSMT-43" x="150"/>
     <use xlink:href="#TimesNewRomanPSMT-53" x="216.699219"/>
    </g>
   </g>
   <g id="patch_126">
    <path d="M 389.893594 22.6 
L 417.893594 22.6 
L 417.893594 12.8 
L 389.893594 12.8 
z
" style="fill: #d62728"/>
   </g>
   <g id="text_61">
    <!-- Greedy -->
    <g transform="translate(429.093594 22.6) scale(0.14 -0.14)">
     <defs>
      <path id="TimesNewRomanPSMT-47" d="M 3928 4334 
L 4038 2997 
L 3928 2997 
Q 3763 3497 3500 3750 
Q 3122 4116 2528 4116 
Q 1719 4116 1297 3475 
Q 944 2934 944 2188 
Q 944 1581 1178 1081 
Q 1413 581 1792 348 
Q 2172 116 2572 116 
Q 2806 116 3025 175 
Q 3244 234 3447 350 
L 3447 1575 
Q 3447 1894 3398 1992 
Q 3350 2091 3248 2142 
Q 3147 2194 2891 2194 
L 2891 2313 
L 4531 2313 
L 4531 2194 
L 4453 2194 
Q 4209 2194 4119 2031 
Q 4056 1916 4056 1575 
L 4056 278 
Q 3697 84 3347 -6 
Q 2997 -97 2569 -97 
Q 1341 -97 703 691 
Q 225 1281 225 2053 
Q 225 2613 494 3125 
Q 813 3734 1369 4063 
Q 1834 4334 2469 4334 
Q 2700 4334 2889 4296 
Q 3078 4259 3425 4131 
Q 3600 4066 3659 4066 
Q 3719 4066 3761 4120 
Q 3803 4175 3813 4334 
L 3928 4334 
z
" transform="scale(0.015625)"/>
     </defs>
     <use xlink:href="#TimesNewRomanPSMT-47"/>
     <use xlink:href="#TimesNewRomanPSMT-72" x="72.216797"/>
     <use xlink:href="#TimesNewRomanPSMT-65" x="105.517578"/>
     <use xlink:href="#TimesNewRomanPSMT-65" x="149.902344"/>
     <use xlink:href="#TimesNewRomanPSMT-64" x="194.287109"/>
     <use xlink:href="#TimesNewRomanPSMT-79" x="244.287109"/>
    </g>
   </g>
   <g id="patch_127">
    <path d="M 498.295156 22.6 
L 526.295156 22.6 
L 526.295156 12.8 
L 498.295156 12.8 
z
" style="fill: #9467bd"/>
   </g>
   <g id="text_62">
    <!-- CSBWA -->
    <g transform="translate(537.495156 22.6) scale(0.14 -0.14)">
     <defs>
      <path id="TimesNewRomanPSMT-42" d="M 2956 2163 
Q 3397 2069 3616 1863 
Q 3919 1575 3919 1159 
Q 3919 844 3719 555 
Q 3519 266 3170 133 
Q 2822 0 2106 0 
L 106 0 
L 106 116 
L 266 116 
Q 531 116 647 284 
Q 719 394 719 750 
L 719 3488 
Q 719 3881 628 3984 
Q 506 4122 266 4122 
L 106 4122 
L 106 4238 
L 1938 4238 
Q 2450 4238 2759 4163 
Q 3228 4050 3475 3764 
Q 3722 3478 3722 3106 
Q 3722 2788 3528 2536 
Q 3334 2284 2956 2163 
z
M 1319 2331 
Q 1434 2309 1582 2298 
Q 1731 2288 1909 2288 
Q 2366 2288 2595 2386 
Q 2825 2484 2947 2687 
Q 3069 2891 3069 3131 
Q 3069 3503 2766 3765 
Q 2463 4028 1881 4028 
Q 1569 4028 1319 3959 
L 1319 2331 
z
M 1319 306 
Q 1681 222 2034 222 
Q 2600 222 2897 476 
Q 3194 731 3194 1106 
Q 3194 1353 3059 1581 
Q 2925 1809 2622 1940 
Q 2319 2072 1872 2072 
Q 1678 2072 1540 2065 
Q 1403 2059 1319 2044 
L 1319 306 
z
" transform="scale(0.015625)"/>
      <path id="TimesNewRomanPSMT-57" d="M 5991 4238 
L 5991 4122 
Q 5825 4122 5722 4062 
Q 5619 4003 5525 3841 
Q 5463 3731 5328 3319 
L 4147 -97 
L 4022 -97 
L 3056 2613 
L 2097 -97 
L 1984 -97 
L 725 3422 
Q 584 3816 547 3888 
Q 484 4006 376 4064 
Q 269 4122 84 4122 
L 84 4238 
L 1653 4238 
L 1653 4122 
L 1578 4122 
Q 1413 4122 1325 4047 
Q 1238 3972 1238 3866 
Q 1238 3756 1375 3363 
L 2209 984 
L 2913 3006 
L 2788 3363 
L 2688 3647 
Q 2622 3803 2541 3922 
Q 2500 3981 2441 4022 
Q 2363 4078 2284 4103 
Q 2225 4122 2097 4122 
L 2097 4238 
L 3747 4238 
L 3747 4122 
L 3634 4122 
Q 3459 4122 3378 4047 
Q 3297 3972 3297 3844 
Q 3297 3684 3438 3288 
L 4250 984 
L 5056 3319 
Q 5194 3706 5194 3856 
Q 5194 3928 5148 3990 
Q 5103 4053 5034 4078 
Q 4916 4122 4725 4122 
L 4725 4238 
L 5991 4238 
z
" transform="scale(0.015625)"/>
     </defs>
     <use xlink:href="#TimesNewRomanPSMT-43"/>
     <use xlink:href="#TimesNewRomanPSMT-53" x="66.699219"/>
     <use xlink:href="#TimesNewRomanPSMT-42" x="122.314453"/>
     <use xlink:href="#TimesNewRomanPSMT-57" x="189.013672"/>
     <use xlink:href="#TimesNewRomanPSMT-41" x="272.273438"/>
    </g>
   </g>
  </g>
 </g>
 <defs>
  <clipPath id="pec6825f47c">
   <rect x="50.2325" y="60.2" width="255.13" height="133.48"/>
  </clipPath>
  <clipPath id="pea2715b8be">
   <rect x="369.1025" y="60.2" width="255.13" height="133.48"/>
  </clipPath>
  <clipPath id="p91a491c013">
   <rect x="50.2325" y="266.12" width="255.13" height="133.48"/>
  </clipPath>
  <clipPath id="pa72fb77c40">
   <rect x="369.1025" y="266.12" width="255.13" height="133.48"/>
  </clipPath>
  <clipPath id="p91172b5b46">
   <rect x="50.2325" y="472.04" width="255.13" height="133.48"/>
  </clipPath>
  <clipPath id="p21bd34e3a9">
   <rect x="369.1025" y="472.04" width="255.13" height="133.48"/>
  </clipPath>
 </defs>
</svg>
